<svg xmlns="http://www.w3.org/2000/svg" viewBox="0 0 64 64"><defs><style>.a{fill:#0267c1;}.b{fill:#fff;}.c{fill:#04538e;}</style></defs><title>case</title><rect class="a" width="64" height="64"/><polygon class="b" points="49.4 22 50.7 23.4 57.8 16.3 50.7 9.1 49.4 10.5 54.2 15.3 46.8 15.3 46.8 17.2 54.2 17.2 49.4 22"/><path class="b" d="M27.7,17.2V15.3H21.5A16.7,16.7,0,0,0,4.8,31.2H6.7a14.8,14.8,0,0,1,14.8-14Z"/><path class="b" d="M42.5,46.8H36.3v1.9h6.2A16.7,16.7,0,0,0,59.2,32.8H57.3A14.8,14.8,0,0,1,42.5,46.8Z"/><rect class="c" x="28.3" y="46.8" width="3.9" height="1.9"/><rect class="c" x="21.3" y="46.8" width="3.9" height="1.9"/><polygon class="b" points="13.3 40.6 6.2 47.8 13.3 54.9 14.6 53.5 9.8 48.7 17.2 48.7 17.2 46.8 9.8 46.8 14.6 42 13.3 40.6"/><rect class="c" x="31.8" y="15.3" width="3.9" height="1.9"/><rect class="c" x="38.8" y="15.3" width="3.9" height="1.9"/></svg>