<svg xmlns="http://www.w3.org/2000/svg" viewBox="0 0 64 64"><defs><style>.a{fill:#0267c1;}.b{fill:none;}.c{fill:#fff;}</style></defs><title>issue-avatars</title><rect class="a" width="64" height="64"/><path class="b" d="M50.7,32.6a5.7,5.7,0,0,0-5.9,5.7c0,5.1,4,11.3,5.9,13.9,1.9-2.6,5.9-8.8,5.9-13.9A5.7,5.7,0,0,0,50.7,32.6Zm0,15.4c-1.8-2.9-3.6-6.7-3.6-9.7a3.6,3.6,0,0,1,7.2,0C54.3,41.4,52.3,45.4,50.7,48.1Z"/><path class="b" d="M32,5.9a5.7,5.7,0,0,0-5.9,5.7c0,5.1,4,11.3,5.9,13.9,1.9-2.6,5.9-8.8,5.9-13.9A5.7,5.7,0,0,0,32,5.9Zm0,15.4c-1.8-2.9-3.6-6.7-3.6-9.7A3.4,3.4,0,0,1,32,8.2a3.4,3.4,0,0,1,3.6,3.4C35.6,14.7,33.6,18.6,32,21.3Z"/><path class="b" d="M17.5,22.1a6,6,0,0,0-4.3-1.7A5.7,5.7,0,0,0,7.4,26c0,5.1,4,11.3,5.9,13.9,1.9-2.6,5.9-8.8,5.9-13.9A5.6,5.6,0,0,0,17.5,22.1ZM13.3,35.8C11.5,32.9,9.7,29,9.7,26a3.4,3.4,0,0,1,3.6-3.4A3.4,3.4,0,0,1,16.9,26C16.9,29.2,14.9,33.1,13.3,35.8Z"/><path class="c" d="M20.9,26a7.5,7.5,0,0,0-7.6-7.4A7.5,7.5,0,0,0,5.7,26c0,6.2,5.3,13.7,7.6,16.7h.1C14.2,41.7,20.9,33,20.9,26ZM13.2,40.2c-1.8-2.5-6-8.9-6-14.2a6,6,0,0,1,6.1-5.9,6.2,6.2,0,0,1,4.4,1.8A5.8,5.8,0,0,1,19.4,26c0,5.2-4.2,11.6-6,14.2h-.2Z"/><path class="c" d="M32,4.1a7.5,7.5,0,0,0-7.6,7.4c0,6.2,5.3,13.7,7.6,16.7h0c.9-1.1,7.6-9.8,7.6-16.8A7.5,7.5,0,0,0,32,4.1Zm.1,21.6h-.2c-1.8-2.5-6-8.9-6-14.2A6,6,0,0,1,32,5.6a6,6,0,0,1,6.1,5.9C38.1,16.8,33.9,23.2,32.1,25.7Z"/><path class="c" d="M58.3,38.3a7.6,7.6,0,0,0-15.3,0c0,6.2,5.3,13.7,7.6,16.7h0C52.1,53.3,58.3,45.1,58.3,38.3ZM50.6,52.5c-1.8-2.5-6-8.9-6-14.2a6.1,6.1,0,0,1,12.3,0c0,5.2-4.2,11.6-6,14.2h-.2Z"/><polygon class="c" points="15 47.5 32.4 33.1 31.4 31.9 11.7 48.3 50.4 59.8 50.8 58.4 14.8 47.7 15 47.5"/></svg>