<svg xmlns="http://www.w3.org/2000/svg" viewBox="0 0 64 64"><defs><style>.a{fill:#4d4d4d;}.b,.c{fill:#fff;}.c{font-size:15.03px;font-family:Avenir-Medium, Avenir;}</style></defs><title>issue-avatars</title><rect class="a" width="64" height="64"/><path class="b" d="M40.4,48.4H23.1a.8.8,0,0,1,0-1.5H40.4a.8.8,0,1,1,0,1.5Zm0,0"/><path class="b" d="M19,52.5a4.9,4.9,0,1,1,4.9-4.9A4.9,4.9,0,0,1,19,52.5Zm0-8.2a3.4,3.4,0,1,0,3.4,3.4A3.4,3.4,0,0,0,19,44.3Zm0,0"/><path class="b" d="M44.5,52.5a4.9,4.9,0,1,1,4.9-4.9,4.9,4.9,0,0,1-4.9,4.9Zm0-8.2a3.4,3.4,0,1,0,3.4,3.4,3.4,3.4,0,0,0-3.4-3.4Zm0,0"/><path class="b" d="M40.4,48.4H23.1a.8.8,0,1,1,0-1.5H40.4a.8.8,0,1,1,0,1.5Zm0,0"/><path class="b" d="M52.3,48.4H48.7a.8.8,0,0,1,0-1.5h3.6a1.9,1.9,0,0,0,1.9-1.6l.7-4.6a1.9,1.9,0,0,0-1.7-2.2l-11-1.2-.4-.2-9.2-7.7a3.2,3.2,0,0,0-2-.7H15.5a2.1,2.1,0,0,0-1.7.9l-5.5,8A1.9,1.9,0,0,0,8,39l1,6.3a1.9,1.9,0,0,0,1.9,1.6h4a.8.8,0,0,1,0,1.5h-4a3.4,3.4,0,0,1-3.4-2.9l-1-6.3A3.4,3.4,0,0,1,7,36.8l5.5-8a3.6,3.6,0,0,1,3-1.6H30.6a4.6,4.6,0,0,1,3,1.1l9,7.6,10.8,1.2a3.4,3.4,0,0,1,3,3.9l-.7,4.6a3.4,3.4,0,0,1-3.4,2.9Zm0,0"/><path class="b" d="M35.6,38H13.7a.8.8,0,1,1,0-1.5H35.6a.8.8,0,0,1,0,1.5Zm0,0"/><path class="b" d="M46.8,33.3A11.1,11.1,0,1,1,57.9,22.2,11.1,11.1,0,0,1,46.8,33.3Zm0-20.9a9.8,9.8,0,1,0,9.8,9.8A9.8,9.8,0,0,0,46.8,12.4Z"/><text class="c" transform="translate(43.1 27.2)">?</text></svg>