<svg xmlns="http://www.w3.org/2000/svg" xmlns:xlink="http://www.w3.org/1999/xlink" viewBox="0 0 1280 510.6"><defs><style>.a{fill:#fff;}.b{opacity:0.5;}.c,.d{fill:none;stroke:#0267c1;stroke-linecap:round;stroke-miterlimit:10;stroke-width:1.5px;}.d{stroke-dasharray:0 6;}.e,.m,.r{font-size:16px;}.e,.m{fill:#0267c1;font-family:BarlowSemiCondensed-Bold, Barlow Semi Condensed;font-weight:700;}.f{letter-spacing:-0.01em;}.g{letter-spacing:-0.02em;}.h{letter-spacing:0em;}.i{letter-spacing:-0.04em;}.j{letter-spacing:-0.02em;}.k{letter-spacing:0em;}.l{fill:url(#a);}.m{letter-spacing:-0.06em;}.n{letter-spacing:-0.03em;}.o{letter-spacing:0em;}.p{fill:url(#b);}.q{font-size:24px;fill:#a2a9b2;font-family:OpenSans, Open Sans;}.r{fill:#181c21;}</style><linearGradient id="a" x1="160" y1="482" x2="1120" y2="482" gradientUnits="userSpaceOnUse"><stop offset="0" stop-color="#fff"/><stop offset="1" stop-color="#004a97"/></linearGradient><linearGradient id="b" x1="551" y1="-91" x2="1031" y2="-91" gradientTransform="translate(-633 331)" xlink:href="#a"/></defs><title>mozio-content</title><rect class="a" x="160" width="960" height="480"/><g class="b"><line class="c" x1="640" x2="640"/><line class="d" x1="640" y1="6" x2="640" y2="477"/><line class="c" x1="640" y1="480" x2="640" y2="480"/></g><g class="b"><line class="c" x1="1120" y1="240" x2="1120" y2="240"/><line class="d" x1="1114" y1="240" x2="163" y2="240"/><line class="c" x1="160" y1="240" x2="160" y2="240"/></g><text class="e" transform="translate(176 463.6)"><tspan class="f">L</tspan><tspan class="g" x="7.9" y="0">O</tspan><tspan x="16.3" y="0">W</tspan></text><text class="e" transform="translate(1073.8 29.6)">HIGH</text><text class="e" transform="translate(616.2 510.6)">I<tspan class="h" x="3.9" y="0">M</tspan><tspan class="i" x="13.9" y="0">P</tspan><tspan class="j" x="21.6" y="0">A</tspan><tspan class="h" x="30.7" y="0">C</tspan><tspan class="k" x="39.2" y="0">T</tspan></text><rect class="l" x="160" y="480" width="960" height="4"/><text class="m" transform="translate(141 299.3) rotate(-90)">T<tspan class="n" x="7.5" y="0">A</tspan><tspan class="k" x="16.3" y="0">SK CO</tspan><tspan class="h" x="54.1" y="0">M</tspan><tspan class="o" x="64" y="0">PLEXITY</tspan></text><rect class="p" x="-82" y="238" width="480" height="4" transform="translate(-82 398) rotate(-90)"/><text class="q" transform="translate(706.1 296.7)">• <tspan class="r" x="15.3" y="-3">Hourlies</tspan></text><text class="q" transform="translate(879.7 67.6)">• <tspan class="r" x="15.3" y="-3">Travel agent dashboard</tspan></text><text class="q" transform="translate(222.3 419.5)">• <tspan class="r" x="15.3" y="-3">About us page</tspan></text><text class="q" transform="translate(965.9 431.5)">• <tspan class="r" x="15.3" y="-3">Social proofing</tspan></text><text class="q" transform="translate(599.3 225.5)">• <tspan class="r" x="15.3" y="-3">NPS feedback system</tspan></text><text class="q" transform="translate(748.1 431.5)">• <tspan class="r" x="15.3" y="-3">Map display</tspan></text><text class="q" transform="translate(422 440.1)">• <tspan class="r" x="15.3" y="-3">Flight selector</tspan></text><text class="q" transform="translate(732.2 195.1)">• <tspan class="r" x="15.3" y="-3">Error handling</tspan></text><text class="q" transform="translate(382.2 72.1)">• <tspan class="r" x="15.3" y="-3">Public transit</tspan></text><text class="q" transform="translate(906.7 145.1)">• <tspan class="r" x="15.3" y="-3">Train use cases</tspan></text><text class="q" transform="translate(666.9 32.6)">• <tspan class="r" x="15.3" y="-3">Homepage redesign</tspan></text><text class="q" transform="translate(892.9 200.1)">• <tspan class="r" x="15.3" y="-3">Bus use cases</tspan></text><text class="q" transform="translate(321.1 356.1)">• <tspan class="r" x="15.3" y="-3">Transportation filters</tspan></text><text class="q" transform="translate(480 32.6)">• <tspan class="r" x="15.3" y="-3">Multimodal use cases</tspan></text><text class="q" transform="translate(624 67.6)">• <tspan class="r" x="15.3" y="-3">User dashboard</tspan></text><text class="q" transform="translate(225.6 78.1)">• <tspan class="r" x="15.3" y="-3">FAQ center</tspan></text><text class="q" transform="translate(696.9 250.1)">• <tspan class="r" x="15.3" y="-3">Schedule selection</tspan></text><text class="q" transform="translate(701.1 356.1)">• <tspan class="r" x="15.3" y="-3">Pickup/Flight time toggle</tspan></text><text class="q" transform="translate(301.1 304.1)">• <tspan class="r" x="15.3" y="-3">Confirmation page</tspan></text><text class="q" transform="translate(445.9 392.7)">• <tspan class="r" x="15.3" y="-3">Design reviews</tspan></text><text class="q" transform="translate(497 134.9)">• <tspan class="r" x="15.3" y="-3">Email redesign</tspan></text></svg>