<svg xmlns="http://www.w3.org/2000/svg" viewBox="0 0 64 64"><defs><style>.a{fill:#4d4d4d;}.b{fill:#fff;}</style></defs><title>issue-avatars</title><rect class="a" width="64" height="64"/><path class="b" d="M55.9,8.1a8.6,8.6,0,0,0-7.1-2.3,12.5,12.5,0,0,0-7.5,3.7,13.2,13.2,0,0,0-2.8,4l-.2.3-7.5-.5h-.4a5.7,5.7,0,0,0-4,1.7L7.8,33.7a6.9,6.9,0,0,0,0,9.7L20.6,56.3a6.9,6.9,0,0,0,9.7,0L49,37.5a5.7,5.7,0,0,0,1.6-4.4l-1.1-16a3,3,0,0,0-2.7-2.7L40.3,14l.4-.8a11.6,11.6,0,0,1,1.8-2.4,10.6,10.6,0,0,1,6.3-3.1,6.8,6.8,0,0,1,5.6,1.8c2.9,2.9,2.3,8.3-1.3,12a.9.9,0,0,0,0,1.3,1,1,0,0,0,1.3,0,12.4,12.4,0,0,0,3.7-7.6A8.6,8.6,0,0,0,55.9,8.1Zm-9.1,8.1a1.1,1.1,0,0,1,1,1l1.1,16a3.8,3.8,0,0,1-1.1,2.9L29,54.9a5,5,0,0,1-7.1,0L9.1,42.1a5,5,0,0,1,0-7.1L27.8,16.3a3.8,3.8,0,0,1,2.9-1.1l7,.5L37.6,17A8.6,8.6,0,0,0,39.9,24a.9.9,0,0,0,1.3-1.3,6.8,6.8,0,0,1-1.8-5.6V15.8Z"/><path class="b" d="M35.1,30.2l1.7-1.7a.9.9,0,0,0-1.3-1.3l-1.7,1.7-.5-.5A4.5,4.5,0,0,0,27,34.7L29.3,37a2.6,2.6,0,0,1,0,3.7,2.7,2.7,0,0,1-3.7,0l-4.1-4.1a.9.9,0,0,0-1.3,1.3l2.3,2.3L20.7,42A.9.9,0,1,0,22,43.3l1.8-1.8.5.5a4.5,4.5,0,0,0,6.3,0,4.5,4.5,0,0,0,0-6.3l-2.3-2.3a2.6,2.6,0,0,1,0-3.7,2.7,2.7,0,0,1,3.7,0l4,4a.9.9,0,0,0,1.6-.7.9.9,0,0,0-.3-.7Z"/></svg>