<?xml version="1.0" encoding="utf-8"?>
<!-- Generator: Adobe Illustrator 21.0.0, SVG Export Plug-In . SVG Version: 6.00 Build 0)  -->
<svg version="1.1" xmlns="http://www.w3.org/2000/svg" xmlns:xlink="http://www.w3.org/1999/xlink" x="0px" y="0px"
	 viewBox="0 0 1199.8 915" style="enable-background:new 0 0 1199.8 915;" xml:space="preserve">
<style type="text/css">
	.st0{fill:none;stroke:#4287C6;stroke-miterlimit:10;}
	.st1{fill:#4287C6;}
	.st2{opacity:0.5;}
	.st3{fill:#EAEAEA;}
	.st4{fill:none;stroke:#B2B2B2;stroke-miterlimit:10;}
	.st5{fill:#3D80BD;}
	.st6{fill:none;stroke:#3571A7;stroke-miterlimit:10;}
	.st7{fill:#FFFFFF;}
	.st8{opacity:0.3;fill:#FFFFFF;}
	.st9{font-family:'Roboto-Medium';}
	.st10{font-size:14px;}
	.st11{font-family:'Roboto-Regular';}
	.st12{fill:#444444;}
	.st13{font-size:12px;}
	.st14{fill:#F2F2F2;}
	.st15{filter:url(#Adobe_OpacityMaskFilter);}
	.st16{opacity:7.000000e-02;mask:url(#SVGID_1_);}
	.st17{fill:#418AC9;}
	.st18{fill-rule:evenodd;clip-rule:evenodd;fill:#FFFFFF;}
	.st19{fill:#FCBF12;}
	.st20{opacity:0.5;enable-background:new    ;}
	.st21{fill:#203895;}
	.st22{fill:#BB0119;}
	.st23{fill:#BC031B;}
	.st24{fill:#EDEEF4;}
	.st25{fill:#F3F0F1;}
	.st26{fill:#B89AB6;}
	.st27{fill:#E6E7EE;}
	.st28{fill:#BC021B;}
	.st29{fill:#C4C4C4;}
	.st30{opacity:0.5;fill:#1A1A1A;}
	.st31{font-size:24px;}
	.st32{fill:#1A1A1A;}
	.st33{font-size:16px;}
	.st34{fill:none;stroke:#E6E6E6;stroke-width:0.5;stroke-miterlimit:10;}
	.st35{fill:#FFFFFF;stroke:#E6E6E6;stroke-width:0.5;stroke-miterlimit:10;}
	.st36{fill:none;stroke:#4287C6;stroke-width:1.5;stroke-miterlimit:10;}
	.st37{opacity:0.5;fill:#8CC63F;}
	.st38{fill:none;stroke:#418AC9;stroke-miterlimit:10;}
	.st39{fill:none;stroke:#EF6A6A;stroke-miterlimit:10;}
	.st40{fill:#EF6A6A;}
	.st41{font-family:'OpenSans-Semibold';}
	.st42{fill:none;stroke:#FFFFFF;stroke-miterlimit:10;}
	.st43{opacity:0.4;fill:#EA8080;}
	.st44{opacity:0.3;fill:#EA8080;}
	.st45{opacity:0.3;fill:#00FFFF;}
	.st46{opacity:0.2;fill:#EA8080;}
	.st47{fill:#EA8080;}
	.st48{fill:none;stroke:#EA8080;stroke-width:3;stroke-miterlimit:10;}
	.st49{fill:#2F6FA3;}
	.st50{filter:url(#Adobe_OpacityMaskFilter_1_);}
	.st51{opacity:7.000000e-02;mask:url(#SVGID_2_);}
	.st52{opacity:0.1;fill:#4287C6;}
	.st53{fill:#DDDDDD;}
	.st54{fill:#333333;}
	.st55{opacity:0.2;fill:#ED1C24;}
	.st56{opacity:0.3;fill:#ED1C24;}
	.st57{opacity:0.4;fill:#8CC63F;}
	.st58{opacity:0.3;fill:#8CC63F;}
	.st59{font-family:'OpenSans';}
	.st60{fill:#FFFFFF;stroke:#EF6A6A;stroke-miterlimit:10;}
	.st61{opacity:0.7;}
	.st62{fill:none;stroke:#2B6189;stroke-miterlimit:10;}
	.st63{fill:none;stroke:#CCCCCC;stroke-miterlimit:10;}
	.st64{font-size:18px;}
	.st65{font-family:'OpenSans-Bold';}
	.st66{filter:url(#Adobe_OpacityMaskFilter_2_);}
	.st67{opacity:7.000000e-02;mask:url(#SVGID_3_);}
	.st68{filter:url(#Adobe_OpacityMaskFilter_3_);}
	.st69{opacity:7.000000e-02;mask:url(#SVGID_4_);}
	.st70{fill:#4287C6;stroke:#EF6A6A;stroke-miterlimit:10;}
	.st71{opacity:0.8;fill:#FFFFFF;}
</style>
<g id="Layer_1">
</g>
<g id="Layer_2">
	<path class="st0" d="M111.4,177.7l-2.9-2.8c-0.8-0.7-0.8-0.7,0-1.4l2.9-2.8"/>
	<rect x="-0.1" y="199.6" class="st1" width="1200" height="60"/>
	<g class="st2">
		<path class="st3" d="M195.9,243.6c0,1.7-1.3,3-3,3h-49c-1.7,0-3-1.3-3-3v-29c0-1.7,1.3-3,3-3h49c1.7,0,3,1.3,3,3V243.6z"/>
		<path class="st4" d="M195.4,243.1c0,1.7-1.3,3-3,3h-49c-1.7,0-3-1.3-3-3v-29c0-1.7,1.3-3,3-3h49c1.7,0,3,1.3,3,3V243.1z"/>
	</g>
	<g>
		<path class="st5" d="M1059.9,243.6c0,1.7-1.3,3-3,3h-98c-1.7,0-3-1.3-3-3v-29c0-1.7,1.3-3,3-3h98c1.7,0,3,1.3,3,3V243.6z"/>
		<path class="st6" d="M1059.4,243.1c0,1.7-1.3,3-3,3h-98c-1.7,0-3-1.3-3-3v-29c0-1.7,1.3-3,3-3h98c1.7,0,3,1.3,3,3V243.1z"/>
	</g>
	<g>
		<path class="st5" d="M944.9,243.6c0,1.7-1.3,3-3,3h-196c-1.7,0-3-1.3-3-3v-29c0-1.7,1.3-3,3-3h196c1.7,0,3,1.3,3,3V243.6z"/>
		<path class="st6" d="M945.4,243.1c0,1.7-1.3,3-3,3h-196c-1.7,0-3-1.3-3-3v-29c0-1.7,1.3-3,3-3h196c1.7,0,3,1.3,3,3V243.1z"/>
	</g>
	<path class="st7" d="M918.1,227L918.1,227l3.1,3.6c0.1,0.1,0.3,0.2,0.4,0.2s0.3-0.1,0.4-0.2l3.1-3.5l0.1-0.1c0-0.1,0.1-0.1,0.1-0.2
		c0-0.2-0.2-0.4-0.4-0.4l0,0h-6.5l0,0c-0.2,0-0.4,0.2-0.4,0.4C918,226.9,918,227,918.1,227z"/>
	<g>
		<text transform="matrix(1 0 0 1 763.5727 232.7174)"><tspan x="0" y="0" class="st8 st9 st10">Sort by:</tspan><tspan x="48.7" y="0" class="st7 st11 st10"> Recommended</tspan></text>
	</g>
	<g>
		<path class="st7" d="M1026.2,236.1c-0.1,0-0.2-0.1-0.3-0.1c-0.8-0.2-1.4-1-1.4-1.8c0-0.8,0.6-1.5,1.3-1.8c0.7-0.2,1.5,0,2,0.7
			c0.1,0.2,0.2,0.3,0.3,0.5c0,0.1,0.1,0.1,0.2,0.1c2.8,0,5.7,0,8.5,0c0.7,0,1.4,0,2.1,0c0.3,0,0.5,0.2,0.5,0.5
			c0,0.3-0.2,0.5-0.5,0.5c-3.5,0-7.1,0-10.6,0c-0.1,0-0.2,0-0.3,0.2c-0.3,0.6-0.8,1.1-1.5,1.2c0,0,0,0-0.1,0
			C1026.5,236.1,1026.4,236.1,1026.2,236.1z M1027.4,234.3c0-0.6-0.4-0.9-0.9-0.9c-0.6,0-0.9,0.4-0.9,0.9c0,0.6,0.4,0.9,0.9,0.9
			C1027,235.2,1027.4,234.8,1027.4,234.3z"/>
		<path class="st7" d="M1032.3,221.1c0.1,0,0.2,0.1,0.4,0.1c0.6,0.2,1,0.6,1.2,1.1c0.1,0.1,0.1,0.2,0.2,0.2c1.7,0,3.3,0,5,0
			c0.4,0,0.6,0.3,0.5,0.6c-0.1,0.2-0.3,0.3-0.5,0.3c-1,0-2,0-3,0c-0.7,0-1.3,0-2,0c-0.1,0-0.2,0-0.2,0.1c-0.3,0.8-1,1.3-1.8,1.3
			c-0.7,0-1.4-0.5-1.7-1.3c-0.1-0.1-0.1-0.2-0.2-0.2c-1.7,0-3.3,0-5,0c-0.1,0-0.1,0-0.2,0c-0.2-0.1-0.4-0.3-0.3-0.5
			c0-0.2,0.2-0.4,0.5-0.4c0.6,0,1.3,0,1.9,0c1.1,0,2.1,0,3.2,0c0.1,0,0.1,0,0.2-0.1c0.3-0.7,0.8-1.1,1.5-1.3c0,0,0.1,0,0.1,0
			C1032,221.1,1032.1,221.1,1032.3,221.1z M1032.1,223.9c0.5,0,0.9-0.3,0.9-0.8c0.1-0.6-0.2-1-0.8-1c-0.6-0.1-1,0.2-1.1,0.7
			c0,0.2,0,0.3,0,0.5C1031.2,223.7,1031.6,223.9,1032.1,223.9z"/>
		<path class="st7" d="M1030.4,228.2c1.8,0,3.6,0,5.3,0c0.1,0,0.2,0,0.2-0.1c0.3-0.7,1-1.3,1.7-1.3c0.8,0,1.6,0.5,1.8,1.3
			c0.3,0.7,0,1.5-0.7,2c-1.2,0.9-2.5,0.2-2.9-0.8c0-0.1-0.1-0.2-0.2-0.2c-3.5,0-7,0-10.6,0c-0.1,0-0.1,0-0.2,0
			c-0.2,0-0.4-0.3-0.4-0.5c0-0.2,0.2-0.4,0.5-0.4c1.3,0,2.7,0,4,0C1029.5,228.2,1030,228.2,1030.4,228.2z M1036.8,228.6
			c0,0.6,0.3,0.9,0.9,0.9c0.6,0,1-0.3,1-0.9c0-0.6-0.3-0.9-0.9-1C1037.1,227.7,1036.8,228,1036.8,228.6z"/>
	</g>
	<text transform="matrix(1 0 0 1 974.1398 232.7172)" class="st7 st11 st10">Filters</text>
	<text transform="matrix(1 0 0 1 159.9992 232.7172)" class="st7 st11 st10">All</text>
	<g>
		<path class="st7" d="M278.6,237.9c1.5-0.2,3-1.8,3-3.7v-13.8c0-1.9-1.6-3.7-3.9-3.7H273h-4.8c-2.2,0-3.9,1.8-3.9,3.7v13.8
			c0,1.9,1.5,3.4,3,3.7l-2.3,3.6h2.6l1-1.6h4.4h4.4l1.1,1.6h2.6L278.6,237.9z M270.4,218.1c0-0.3,0.3-0.6,0.6-0.6h1.9h1.9
			c0.3,0,0.6,0.3,0.6,0.6v1.1c0,0.3-0.3,0.6-0.6,0.6H273h-1.9c-0.4,0-0.6-0.3-0.6-0.6L270.4,218.1L270.4,218.1z M268.1,235.9
			c-0.9,0-1.7-0.8-1.7-1.7c0-0.9,0.8-1.7,1.7-1.7c0.9,0,1.7,0.8,1.7,1.7C269.8,235.1,269,235.9,268.1,235.9z M268.3,226.9
			c-1.1,0-1.9-0.7-1.9-1.9v-2.5c0-1,0.7-1.9,1.9-1.9h4.6h4.6c1.3,0,1.9,0.9,1.9,1.9v2.5c0,1.2-0.9,1.9-1.9,1.9H273H268.3z
			 M276.1,234.2c0-0.9,0.8-1.7,1.7-1.7c0.9,0,1.7,0.8,1.7,1.7c0,0.9-0.8,1.7-1.7,1.7C276.8,235.9,276.1,235.1,276.1,234.2z"/>
	</g>
	<path class="st7" d="M328.5,222.2h-0.5V220c0-0.8-0.6-1.6-1.4-1.9c0,0-2.5-0.8-8.7-0.8s-8.7,0.8-8.7,0.8c-0.8,0.2-1.4,1.1-1.4,1.9
		v2.2h-0.5c-0.7,0-1.2,0.5-1.2,1.2v2.9c0,0.7,0.5,1.2,1.2,1.2h0.5v10.8h0.7v0.5c0,1.2,1,2.2,2.2,2.2c1.2,0,2.2-1,2.2-2.2v-0.5h10
		v0.5c0,1.2,1,2.2,2.2,2.2c1.2,0,2.2-1,2.2-2.2v-0.5h0.7v-10.8h0.5c0.7,0,1.2-0.5,1.2-1.2v-2.9C329.7,222.7,329.2,222.2,328.5,222.2
		z M314.4,218.8h7.2v1.9h-7.2V218.8z M310.9,236.5c-0.7,0-1.2-0.5-1.2-1.2s0.5-1.2,1.2-1.2c0.7,0,1.2,0.5,1.2,1.2
		S311.5,236.5,310.9,236.5z M309.9,231.2v-9.1h16.2v9.1H309.9z M325.2,236.5c-0.7,0-1.2-0.5-1.2-1.2s0.5-1.2,1.2-1.2
		c0.7,0,1.2,0.5,1.2,1.2S325.8,236.5,325.2,236.5z"/>
	<path class="st7" d="M237.4,219.5c-0.3-0.8-1-1.4-1.9-1.4h-15.1c-0.9,0-1.7,0.6-1.9,1.4l-2.8,8.2v11c0,0.8,0.6,1.4,1.4,1.4h1.4
		c0.8,0,1.4-0.6,1.4-1.4v-1.4h16.4v1.4c0,0.8,0.6,1.4,1.4,1.4h1.4c0.8,0,1.4-0.6,1.4-1.4v-11L237.4,219.5z M220.4,233.2
		c-1.1,0-2.1-0.9-2.1-2.1c0-1.1,0.9-2.1,2.1-2.1s2.1,0.9,2.1,2.1C222.4,232.3,221.5,233.2,220.4,233.2z M235.4,233.2
		c-1.1,0-2.1-0.9-2.1-2.1c0-1.1,0.9-2.1,2.1-2.1c1.1,0,2.1,0.9,2.1,2.1C237.5,232.3,236.6,233.2,235.4,233.2z M218.3,226.4l2.1-6.2
		h15.1l2.1,6.2H218.3z"/>
	<g>
		<path class="st7" d="M370.5,220.7c0-1.1-0.9-2-2-2h-2.4v-1c0-0.6-0.5-1-1-1h-4c-0.6,0-1,0.5-1,1v1h-2.4c-1.1,0-2,0.9-2,2v5.3
			l-2.5,0.8c0,0,2.7,3.8,3,8.5c0,0-0.1,0-0.1-0.1c-0.5-0.3-1.1-0.6-2.2-0.6c-1.7,0-3.4,1-3.6,1.1l1.1,1.8c0,0,1.4-0.8,2.6-0.8
			c0.5,0,0.8,0.1,1.1,0.4c0.5,0.3,1,0.6,2,0.6c0.9,0,1.5-0.3,1.9-0.6c0.4-0.2,0.6-0.3,1.1-0.3c0.5,0,0.8,0.1,1.2,0.4
			c0.5,0.3,1,0.6,1.9,0.6c1,0,1.6-0.3,2.1-0.6c0.4-0.2,0.6-0.3,0.9-0.3c0.3,0,0.5,0.1,0.9,0.3c0.5,0.3,1.2,0.6,2.2,0.6
			c1.1,0,1.7-0.4,2.2-0.6c0.4-0.2,0.6-0.3,0.9-0.3c0.7,0,2,0.5,2.6,0.8l0.9-1.8c-0.2-0.1-2.2-1-3.6-1c-0.8,0-1.4,0.3-1.8,0.6
			c-0.1,0.1-0.3,0.2-0.4,0.2c0.3-4.7,3-8.5,3-8.5l-2.5-0.8L370.5,220.7z M358,220.8h10.2v4.6l-5.1-1.6l-5.1,1.6V220.8z"/>
		<path class="st7" d="M370.5,239.1c-0.4,0.2-0.7,0.4-1.2,0.4c-0.5,0-0.8-0.2-1.2-0.4c-0.5-0.2-1-0.6-1.9-0.6
			c-0.8,0-1.4,0.3-1.9,0.6c-0.4,0.2-0.7,0.4-1.1,0.4c-0.4,0-0.6-0.1-0.9-0.3c-0.5-0.3-1.1-0.6-2.2-0.6c-1.1,0-1.7,0.4-2.2,0.6
			c-0.3,0.2-0.5,0.3-0.9,0.3c-0.4,0-0.6-0.1-1-0.3c-0.5-0.3-1.1-0.6-2.2-0.6c-1.7,0-3.4,1-3.6,1.1l1.1,1.8c0,0,1.4-0.8,2.6-0.8
			c0.5,0,0.8,0.1,1.1,0.4c0.5,0.3,1,0.6,2,0.6c0.9,0,1.5-0.3,1.9-0.6c0.4-0.2,0.6-0.4,1.1-0.4c0.5,0,0.8,0.1,1.2,0.4
			c0.5,0.3,1,0.6,1.9,0.6c1,0,1.6-0.3,2.1-0.6c0.4-0.2,0.6-0.3,0.9-0.3c0.3,0,0.5,0.1,0.9,0.3c0.5,0.3,1.2,0.6,2.2,0.6
			c1.1,0,1.7-0.4,2.2-0.6c0.4-0.2,0.6-0.3,0.9-0.3c0.7,0,2,0.5,2.6,0.8l0.9-1.8c-0.2-0.1-2.2-1-3.6-1
			C371.5,238.5,371,238.8,370.5,239.1z"/>
	</g>
	<g>
		
			<image style="overflow:visible;opacity:0.2;" width="1213" height="83" xlink:href="724633684550215A.png"  transform="matrix(1 0 0 1 -6.519 124.8692)">
		</image>
		<g>
			<rect y="129.8" class="st7" width="1199.8" height="70"/>
		</g>
	</g>
	<g>
		<text transform="matrix(1 0 0 1 947.2772 157.9284)" class="st12 st9 st13">Roundtrip?</text>
		<g>
			<g>
				<g>
					<path class="st14" d="M998.9,172.7c0,5-3.8,9-8.5,9h-27.1c-4.7,0-8.5-4-8.5-9l0,0c0-5,3.8-9,8.5-9h27.1
						C995.1,163.7,998.9,167.8,998.9,172.7L998.9,172.7z"/>
				</g>
				<defs>
					<filter id="Adobe_OpacityMaskFilter" filterUnits="userSpaceOnUse" x="954.8" y="163.7" width="44.1" height="18">
						
							<feColorMatrix  type="matrix" values="-1 0 0 0 1  0 -1 0 0 1  0 0 -1 0 1  0 0 0 1 0" color-interpolation-filters="sRGB" result="source"/>
					</filter>
				</defs>
				<mask maskUnits="userSpaceOnUse" x="954.8" y="163.7" width="44.1" height="18" id="SVGID_1_">
					<g class="st15">
						
							<image style="overflow:visible;" width="49" height="23" xlink:href="724633684550215E.jpg"  transform="matrix(1 0 0 1 952.481 160.8692)">
						</image>
					</g>
				</mask>
				<g class="st16">
					<path d="M998.9,172.7c0,5-3.8,9-8.5,9h-27.1c-4.7,0-8.5-4-8.5-9l0,0c0-5,3.8-9,8.5-9h27.1C995.1,163.7,998.9,167.8,998.9,172.7
						L998.9,172.7z"/>
				</g>
			</g>
			<g>
				<circle class="st17" cx="963.4" cy="172.7" r="7.6"/>
			</g>
		</g>
	</g>
	<g>
		<g>
			<path class="st17" d="M1060.3,179.6c0,1.6-1.3,3-3,3h-29c-1.7,0-3-1.4-3-3v-29c0-1.7,1.3-3,3-3h29c1.7,0,3,1.3,3,3V179.6z"/>
		</g>
		<path class="st18" d="M1049.3,170l-3-3c0,0,0,0-0.1,0c0.6-0.9,0.9-2,0.9-3.1c0-3.1-2.5-5.6-5.6-5.6s-5.6,2.5-5.6,5.6
			c0,3.1,2.5,5.6,5.6,5.6c1.1,0,2.2-0.3,3.1-0.9c0,0,0,0,0,0.1l3,3c0.4,0.4,1.2,0.4,1.6,0C1049.8,171.2,1049.8,170.4,1049.3,170
			L1049.3,170z M1041.6,167.6c-2,0-3.7-1.6-3.7-3.7c0-2,1.6-3.7,3.7-3.7s3.7,1.6,3.7,3.7C1045.3,165.9,1043.6,167.6,1041.6,167.6
			L1041.6,167.6z M1041.6,167.6"/>
	</g>
	<rect x="0" y="80.3" class="st7" width="1199.8" height="50"/>
	<g>
		<path class="st19" d="M176.9,105.4c0,1-0.7,1.8-1.5,1.8s-1.5-0.8-1.5-1.8c0-1,0.7-1.8,1.5-1.8
			C176.2,103.6,176.9,104.4,176.9,105.4z"/>
		<path class="st17" d="M157.9,96.4c-1.3,0-2.3,0.2-3.2,0.5c-0.9,0.3-1.7,0.7-2.5,1.1c-0.4-0.4-1-0.7-1.7-1c-0.7-0.3-1.7-0.5-3-0.5
			c-0.9,0-1.8,0.1-2.5,0.3c-0.7,0.2-1.3,0.4-1.9,0.6l-0.8-0.5H140V114h4.6v-12.8c0.4-0.2,0.8-0.4,1.2-0.5c0.4-0.2,1-0.2,1.7-0.2
			c0.8,0,1.4,0.3,1.8,0.9c0.4,0.6,0.6,1.6,0.6,3v9.7h4.6v-10.6c0-0.4,0-0.7-0.1-1.1s-0.1-0.6-0.1-0.7c0.4-0.4,0.9-0.6,1.4-0.8
			c0.5-0.2,1.1-0.3,1.8-0.3c0.9,0,1.5,0.4,1.9,1.1c0.3,0.7,0.5,1.6,0.5,2.8v9.7h4.6v-10.6c0-2.1-0.5-3.8-1.6-5.1
			C161.7,97,160.1,96.4,157.9,96.4z M181.9,99c-0.8-0.8-1.8-1.4-2.9-1.9c-1.1-0.5-2.3-0.7-3.6-0.7c-1.3,0-2.5,0.2-3.6,0.7
			c-1.1,0.5-2.1,1.1-2.9,1.9s-1.5,1.8-1.9,2.8c-0.5,1.1-0.7,2.3-0.7,3.6c0,1.3,0.2,2.4,0.7,3.5c0.5,1.1,1.1,2,1.9,2.8
			s1.8,1.4,2.9,1.9c1.1,0.5,2.3,0.7,3.6,0.7c1.3,0,2.5-0.2,3.6-0.7s2.1-1.1,2.9-1.9c0.8-0.8,1.4-1.7,1.9-2.8
			c0.5-1.1,0.7-2.3,0.7-3.5c0-1.3-0.2-2.5-0.7-3.6C183.3,100.8,182.7,99.8,181.9,99z M179.4,107.4c-0.2,0.6-0.5,1.1-0.9,1.5
			c-0.4,0.4-0.9,0.7-1.4,1c-0.5,0.2-1.1,0.4-1.7,0.4c-0.6,0-1.2-0.1-1.7-0.4c-0.5-0.2-1-0.6-1.4-1c-0.4-0.4-0.7-0.9-0.9-1.5
			c-0.2-0.6-0.3-1.2-0.3-2c0-0.7,0.1-1.3,0.3-2c0.2-0.6,0.5-1.1,0.9-1.6c0.4-0.4,0.9-0.8,1.4-1c0.5-0.2,1.1-0.4,1.7-0.4
			c0.6,0,1.2,0.1,1.7,0.4c0.5,0.3,1,0.6,1.4,1c0.4,0.4,0.7,1,0.9,1.5c0.2,0.6,0.3,1.2,0.3,2S179.7,106.8,179.4,107.4z M228.8,101.9
			c-0.5-1.1-1.1-2-1.9-2.8c-0.8-0.8-1.8-1.4-2.9-1.9c-1.1-0.5-2.3-0.7-3.6-0.7c-1.3,0-2.5,0.2-3.6,0.7c-1.1,0.5-2.1,1.1-2.9,1.9
			c-0.8,0.8-1.5,1.8-1.9,2.8s-0.7,2.3-0.7,3.6c0,1.3,0.2,2.4,0.7,3.5c0.5,1.1,1.1,2,1.9,2.8c0.8,0.8,1.8,1.4,2.9,1.9
			c1.1,0.5,2.3,0.7,3.6,0.7c1.3,0,2.5-0.2,3.6-0.7s2.1-1.1,2.9-1.9c0.8-0.8,1.4-1.7,1.9-2.8c0.5-1.1,0.7-2.3,0.7-3.5
			C229.5,104.1,229.3,103,228.8,101.9z M224.5,107.4c-0.2,0.6-0.5,1.1-0.9,1.5c-0.4,0.4-0.9,0.7-1.4,1c-0.5,0.2-1.1,0.4-1.7,0.4
			c-0.6,0-1.2-0.1-1.7-0.4c-0.5-0.2-1-0.6-1.4-1c-0.4-0.4-0.7-0.9-0.9-1.5c-0.2-0.6-0.3-1.2-0.3-2c0-0.7,0.1-1.3,0.3-2
			c0.2-0.6,0.5-1.1,0.9-1.6c0.4-0.4,0.9-0.8,1.4-1c0.5-0.2,1.1-0.4,1.7-0.4c0.6,0,1.2,0.1,1.7,0.4c0.5,0.3,1,0.6,1.4,1
			c0.4,0.4,0.7,1,0.9,1.5c0.2,0.6,0.3,1.2,0.3,2C224.8,106.1,224.7,106.8,224.5,107.4z M204,114h4.6V97.3H204V114z M200.3,99.3
			l0.7-2.4h-13.7l-1.2,4h7.6l-8.2,10.7l-0.6,2.5h15.3l1.2-4h-9.3L200.3,99.3z"/>
		<path class="st20" d="M222.3,106.4c-1.4-1-2.8-1.9-4.2-2.9c-0.1,0.4-0.2,0.9-0.2,1.3c-14.2-1.2-26.8-1.5-40.9,0
			c0.2,0.8-1.4,1.6-1.3,2.4c13.8-1.5,27.9-1.2,41.8-0.1c-0.1,0.4-0.2,0.9-0.2,1.3C218.8,107.7,220.5,107.1,222.3,106.4z"/>
		<path class="st19" d="M222.3,105.5c-1.4-1.4-2.8-2.9-4.2-4.3c-0.1,0.6-0.2,1.2-0.2,1.9c-14.2-1.8-28.6-1.6-42.8,0.7
			c0.2,1.1,0.4,2.3,0.5,3.4c13.8-2.2,27.9-2.4,41.8-0.6c-0.1,0.6-0.2,1.2-0.2,1.9C218.8,107.4,220.5,106.4,222.3,105.5z"/>
	</g>
	<g>
		<text transform="matrix(1 0 0 1 922.5035 109.4989)" class="st17 st11 st10">Blog</text>
	</g>
	<g>
		<text transform="matrix(1 0 0 1 763.2691 109.4984)" class="st17 st11 st10">Sign In</text>
	</g>
	<g>
		<path class="st21" d="M969.6,106.7c0-0.5,0-1,0-1.4c0,0,0,0,0-0.1c0.1-0.8,0.2-1.5,0.5-2.2c0-0.1,0.1-0.2,0.1-0.3
			c0.2-0.3,0.3-0.7,0.5-1c0.1-0.1,0.2-0.3,0.2-0.4c0.3-0.5,0.6-0.9,1-1.3c0.6-0.6,1.2-1.1,1.9-1.6c0.1-0.1,0.3-0.2,0.4-0.2
			c0.3-0.2,0.7-0.3,1-0.5c0.1,0,0.2-0.1,0.3-0.1c0.4-0.1,0.9-0.3,1.4-0.4c0.9-0.2,1.8-0.2,2.7-0.1c0,0.1,0,0.1,0,0.2
			c0,0.6,0,1.2,0,1.7c0,0.2,0,0.3,0,0.5c0,0.1,0,0.1,0,0.2c0,0.2,0,0.3,0,0.5c0,0,0,0.1,0,0.1c0,0,0,0,0,0c0,0.2,0,0.4,0,0.6
			c0,0.6,0,1.3,0,1.9c0,0,0,0,0,0.1c0,0.1,0,0.1,0,0.2c0,0.2,0,0.3,0,0.5c0,0.1,0,0.1,0,0.2c0,0.2,0,0.3,0,0.5c0,0,0,0.1,0,0.1
			c0,0,0,0,0,0c0,0.1,0,0.3,0,0.4c0,0.7,0,1.3,0,2c0,0,0,0,0,0c-0.1,0-0.2,0-0.3,0c-0.1,0-0.1,0-0.2,0c-0.2,0-0.3,0-0.5,0
			c-0.1,0-0.1,0-0.2,0c-0.2,0-0.3,0-0.5,0c-0.1,0-0.1,0-0.2,0c-0.2,0-0.3,0-0.5,0c-0.1,0-0.1,0-0.2,0c-0.2,0-0.3,0-0.5,0
			c-0.1,0-0.1,0-0.2,0c-0.2,0-0.3,0-0.5,0c-0.1,0-0.1,0-0.2,0c-0.2,0-0.3,0-0.5,0c-0.1,0-0.1,0-0.2,0c-0.2,0-0.3,0-0.5,0
			c-0.1,0-0.1,0-0.2,0c-0.2,0-0.3,0-0.5,0c-0.1,0-0.1,0-0.2,0c-0.2,0-0.3,0-0.5,0c-0.1,0-0.1,0-0.2,0c-0.2,0-0.3,0-0.5,0
			c-0.1,0-0.1,0-0.2,0c-0.2,0-0.3,0-0.5,0c-0.1,0-0.1,0-0.2,0c-0.2,0-0.3,0-0.5,0c-0.1,0-0.1,0-0.2,0c-0.2,0-0.3,0-0.5,0
			c-0.1,0-0.1,0-0.2,0c-0.1,0-0.2,0-0.3,0C969.6,107,969.7,106.8,969.6,106.7C969.6,106.8,969.6,106.8,969.6,106.7z M977.9,102.6
			L977.9,102.6c-0.2,0-0.4,0-0.6,0c0.2,0.1,0.3,0.2,0.4,0.3c0,0,0,0,0.1,0c0,0.2-0.1,0.4-0.1,0.6c0.2-0.1,0.3-0.2,0.5-0.3
			c0.1,0.1,0.3,0.2,0.5,0.3c0-0.2-0.1-0.3-0.1-0.4c0-0.1,0-0.1,0.1-0.2c0.1-0.1,0.2-0.2,0.4-0.3c-0.1,0-0.2,0-0.3,0
			c-0.1,0-0.2,0-0.3-0.1c0-0.1,0-0.1-0.1-0.2c0-0.1-0.1-0.2-0.1-0.3C978.1,102.3,978,102.4,977.9,102.6z M974.4,100.8
			c0.1,0,0.1,0,0.1-0.1c0.1,0,0.1-0.1,0.2-0.1c0.1-0.1,0.2-0.1,0.3,0c0.1,0.1,0.2,0.1,0.3,0.2c-0.1-0.2-0.1-0.3-0.1-0.5
			c0-0.1,0-0.1,0.1-0.2c0.1-0.1,0.2-0.2,0.3-0.3c-0.1,0-0.3,0-0.4,0c-0.1,0-0.1,0-0.2,0c-0.1-0.2-0.1-0.4-0.2-0.6
			c0,0.1-0.1,0.2-0.1,0.4c0,0.2-0.1,0.2-0.3,0.2c-0.1,0-0.2,0-0.4,0c0.1,0.1,0.2,0.2,0.3,0.3c0.1,0.1,0.2,0.2,0.1,0.3
			C974.4,100.5,974.4,100.6,974.4,100.8C974.4,100.8,974.4,100.8,974.4,100.8C974.4,100.8,974.4,100.8,974.4,100.8z M974.4,103.5
			c0.1,0,0.2-0.1,0.2-0.2c0.1-0.1,0.3-0.1,0.4,0c0.1,0.1,0.2,0.1,0.3,0.2c0-0.1-0.1-0.2-0.1-0.3c-0.1-0.3-0.1-0.3,0.1-0.5
			c0.1-0.1,0.1-0.1,0.2-0.2c-0.2,0-0.3,0-0.4,0c-0.1,0-0.1,0-0.2,0c-0.1-0.2-0.1-0.4-0.2-0.5c0,0.1-0.1,0.2-0.1,0.2
			c-0.1,0.4,0,0.3-0.4,0.3c-0.1,0-0.2,0-0.3,0c0.1,0.2,0.5,0.2,0.4,0.6C974.4,103.3,974.4,103.4,974.4,103.5
			C974.4,103.5,974.4,103.6,974.4,103.5C974.4,103.6,974.4,103.6,974.4,103.5z M974.4,106.3c0.1-0.1,0.2-0.1,0.3-0.2
			c0.1,0,0.1,0,0.2,0c0.1,0.1,0.2,0.2,0.4,0.3c0-0.2-0.1-0.3-0.1-0.4c0-0.1,0-0.1,0.1-0.2c0.1-0.1,0.2-0.2,0.3-0.3
			c-0.1,0-0.2,0-0.3,0c-0.1,0-0.1,0-0.2,0c-0.1,0-0.1-0.1-0.1-0.1c0-0.1-0.1-0.3-0.2-0.4c-0.1,0.2-0.1,0.3-0.2,0.5
			c0,0.1-0.1,0.1-0.2,0.1c-0.1,0-0.3,0-0.5,0c0.2,0.2,0.6,0.3,0.4,0.6C974.4,106.2,974.4,106.2,974.4,106.3
			C974.4,106.3,974.4,106.3,974.4,106.3C974.4,106.3,974.4,106.3,974.4,106.3z M977.7,105.7C977.8,105.7,977.8,105.7,977.7,105.7
			c0,0.2,0,0.4-0.1,0.6c0.2-0.1,0.3-0.3,0.5-0.3c0.1,0.1,0.3,0.2,0.4,0.3c0-0.2,0-0.3-0.1-0.4c0-0.1,0-0.1,0.1-0.2
			c0.1-0.1,0.2-0.2,0.4-0.3c-0.1,0-0.2,0-0.2,0c-0.1,0-0.3,0-0.4-0.1c0,0,0-0.1,0-0.1c0-0.1-0.1-0.2-0.1-0.4c0,0.1-0.1,0.2-0.1,0.3
			c0,0.2-0.1,0.3-0.3,0.2c-0.1,0-0.2,0-0.3,0c0,0,0,0,0,0C977.5,105.5,977.6,105.6,977.7,105.7z M973.9,104.1
			C973.9,104.1,973.9,104.1,973.9,104.1C973.9,104.1,973.9,104.1,973.9,104.1c-0.1-0.1-0.2-0.1-0.2-0.1c-0.1,0-0.3,0.1-0.3-0.1
			c0-0.1-0.1-0.3-0.2-0.4c0,0.1-0.1,0.2-0.1,0.4c0,0.1-0.1,0.2-0.2,0.2c-0.1,0-0.2,0-0.4,0c0,0,0,0,0,0.1c0.1,0.1,0.3,0.2,0.4,0.3
			c0,0.2-0.1,0.4-0.1,0.6c0.2-0.1,0.3-0.2,0.5-0.3c0.1,0.1,0.3,0.2,0.5,0.3c0,0,0-0.1,0-0.1C973.5,104.5,973.6,104.3,973.9,104.1z
			 M973.9,101.3C973.9,101.3,973.9,101.3,973.9,101.3C973.9,101.3,973.9,101.3,973.9,101.3c-0.1,0-0.2-0.1-0.2-0.1
			c-0.1,0-0.3,0.1-0.3-0.1c0-0.1-0.1-0.3-0.2-0.4c-0.1,0.1-0.1,0.3-0.1,0.4c0,0.1-0.1,0.1-0.2,0.1c-0.1,0-0.3,0-0.4,0
			c0.2,0.1,0.3,0.2,0.4,0.3c0,0.2-0.1,0.4-0.1,0.6c0.2-0.1,0.3-0.2,0.4-0.3c0.2,0,0.3,0.2,0.5,0.3c0,0,0,0,0,0
			c0-0.2-0.1-0.3-0.1-0.5C973.6,101.5,973.8,101.5,973.9,101.3z M976.6,98.4c0-0.1-0.1-0.3-0.1-0.4c-0.1,0.2-0.1,0.3-0.2,0.4
			c0,0.1-0.1,0.1-0.2,0.1c-0.1,0-0.3,0-0.4,0c0,0,0,0,0,0c0.1,0.1,0.3,0.2,0.4,0.3c0,0,0.1,0.1,0,0.1c-0.1,0.1-0.1,0.3-0.1,0.5
			c0.1-0.1,0.3-0.2,0.4-0.2c0.1-0.1,0.2-0.1,0.3,0c0.1,0.1,0.2,0.2,0.3,0.2c0.1,0,0-0.2-0.1-0.3c0-0.1,0-0.2,0.1-0.3
			c0.1-0.1,0.2-0.1,0.3-0.2C977,98.5,976.8,98.5,976.6,98.4C976.7,98.4,976.6,98.4,976.6,98.4z M971.2,103c0,0.1,0,0.1,0,0.2
			c0,0.1-0.1,0.2-0.1,0.4c0.1-0.1,0.2-0.2,0.3-0.2c0.1-0.1,0.1-0.1,0.2,0c0.1,0.1,0.2,0.2,0.4,0.2c0-0.1-0.1-0.3-0.1-0.4
			c0-0.1,0-0.2,0.1-0.3c0.1-0.1,0.2-0.1,0.3-0.3c-0.2,0-0.4,0-0.6,0c0,0,0-0.1-0.1-0.1c0-0.1-0.1-0.3-0.1-0.4
			c-0.1,0.1-0.1,0.3-0.2,0.4c0,0.1-0.1,0.1-0.2,0.1c-0.1,0-0.3,0-0.4,0c0,0,0,0,0,0C971,102.8,971.1,102.9,971.2,103z M971.2,105.8
			c0,0.1,0,0.1,0,0.2c0,0.1-0.1,0.2-0.1,0.4c0.1-0.1,0.3-0.2,0.4-0.3c0.1,0,0.1,0,0.2,0c0.1,0.1,0.2,0.2,0.4,0.2
			c0-0.2-0.1-0.3-0.1-0.4c0-0.1,0-0.1,0.1-0.2c0.1-0.1,0.2-0.2,0.4-0.3c-0.2,0-0.4,0-0.6,0c0,0,0,0,0,0c0-0.2-0.1-0.3-0.2-0.5
			c-0.1,0.1-0.1,0.2-0.1,0.4c0,0.1-0.1,0.2-0.3,0.2c-0.1,0-0.2,0-0.4,0C971,105.6,971.1,105.7,971.2,105.8z M978.3,99.7
			c0-0.1-0.1-0.3-0.1-0.4c-0.1,0.2-0.1,0.3-0.1,0.4c0,0.1-0.1,0.2-0.2,0.2c-0.1,0-0.3,0-0.4,0c0.2,0.1,0.3,0.2,0.4,0.3
			c0,0.2-0.1,0.4-0.2,0.6c0.2-0.1,0.3-0.2,0.4-0.3c0.2,0,0.3,0.2,0.5,0.3c0-0.2-0.1-0.3-0.1-0.4c0-0.1,0-0.2,0.1-0.2
			c0.1-0.1,0.2-0.2,0.3-0.2c0,0,0,0,0,0c-0.1,0-0.2,0-0.3,0C978.5,99.8,978.3,99.9,978.3,99.7z M976.2,104.5
			c-0.1,0.1-0.1,0.3-0.1,0.4c0.1,0,0.1-0.1,0.1-0.1c0.2-0.2,0.4-0.3,0.7,0c0,0,0.1,0.1,0.1,0c0,0,0-0.1,0-0.1c0-0.1,0-0.1,0-0.1
			c-0.1-0.2-0.1-0.3,0.1-0.4c0.1,0,0.2-0.1,0.2-0.2c-0.2-0.1-0.4,0-0.6-0.1c0-0.2-0.1-0.3-0.2-0.5c-0.1,0.2-0.1,0.3-0.1,0.4
			c0,0.1-0.1,0.1-0.2,0.1c-0.1,0-0.3,0-0.4,0c0.1,0.1,0.2,0.2,0.3,0.3C976.1,104.4,976.2,104.4,976.2,104.5z M977.2,101.3
			C977.2,101.3,977.2,101.3,977.2,101.3C977.2,101.3,977.2,101.3,977.2,101.3c-0.2-0.1-0.4,0-0.5-0.1c-0.1-0.2-0.1-0.3-0.2-0.5
			c-0.1,0.2-0.1,0.3-0.1,0.4c0,0.1-0.1,0.2-0.2,0.1c-0.1,0-0.3,0-0.4,0c0.1,0.1,0.2,0.2,0.3,0.3c0.1,0,0.1,0.1,0.1,0.2
			c-0.1,0.1-0.1,0.3-0.1,0.4c0.1,0,0.1-0.1,0.1-0.1c0.2-0.2,0.4-0.3,0.7,0c0,0,0.1,0.1,0.1,0c0,0,0-0.1,0-0.1
			C976.7,101.7,976.9,101.5,977.2,101.3C977.2,101.4,977.2,101.4,977.2,101.3z"/>
		<path class="st22" d="M986.3,105c0.2,0,0.4,0,0.6,0c0,0,0.1,0,0.1,0c0.1,0,0.2,0,0.3,0c0.2,0,0.3,0,0.3,0.2c0,0,0,0.1,0,0.1
			c0,0.5,0,0.9,0,1.4c0,0.3-0.2,0.3-0.4,0.3c0,0-0.1,0-0.1,0c0,0-0.1,0-0.1,0c-0.2,0-0.4,0-0.6,0c0,0-0.1,0-0.1,0
			c-0.2,0-0.4,0-0.6,0c0,0-0.1,0-0.1,0c-0.2,0-0.4,0-0.6,0c0,0-0.1,0-0.1,0c-0.2,0-0.4,0-0.6,0c0,0-0.1,0-0.1,0c-0.2,0-0.4,0-0.6,0
			c0,0-0.1,0-0.1,0c-0.2,0-0.4,0-0.6,0c0,0-0.1,0-0.1,0c-0.2,0-0.4,0-0.6,0c0,0-0.1,0-0.1,0c-0.2,0-0.4,0-0.6,0c0,0-0.1,0-0.1,0
			c-0.2,0-0.4,0-0.6,0c0,0-0.1,0-0.1,0c-0.2,0-0.4,0-0.6,0c0,0-0.1,0-0.1,0c-0.1,0-0.2,0-0.3,0c0,0,0,0,0,0c0-0.6,0-1.3,0-1.9
			c0.1,0,0.2,0,0.3,0c0,0,0,0,0,0c0,0,0.1,0,0.1,0c0.2,0,0.4,0,0.6,0c0,0,0,0,0,0c0,0,0.1,0,0.1,0c0.2,0,0.4,0,0.6,0c0,0,0,0,0,0
			c0,0,0.1,0,0.1,0c0.2,0,0.4,0,0.6,0c0,0,0,0,0,0c0,0,0.1,0,0.1,0c0.2,0,0.4,0,0.6,0c0,0,0,0,0,0c0,0,0.1,0,0.1,0
			c0.2,0,0.4,0,0.6,0c0,0,0.1,0,0.1,0c0.2,0,0.4,0,0.6,0c0,0,0,0,0,0c0,0,0.1,0,0.1,0c0.2,0,0.4,0,0.6,0c0,0,0,0,0,0
			c0,0,0.1,0,0.1,0c0.2,0,0.4,0,0.6,0c0,0,0.1,0,0.1,0c0.2,0,0.4,0,0.6,0C986.2,105.1,986.3,105.1,986.3,105z"/>
		<path class="st23" d="M984,101c0.2,0,0.4,0,0.6,0c0,0,0.1,0,0.1,0c0.2,0,0.4,0,0.6,0c0,0,0.1,0,0.1,0c0.2,0,0.4,0,0.5,0
			c0,0,0.1,0,0.1,0c0.1,0.1,0.1,0.2,0.2,0.3c0,0,0.1,0.1,0.1,0.1c0.1,0.1,0.1,0.2,0.2,0.3c0,0,0,0.1,0.1,0.1
			c0.1,0.1,0.1,0.2,0.2,0.3c0,0,0,0.1,0.1,0.1c0.1,0.1,0.1,0.3,0.2,0.4c0,0,0,0.1,0.1,0.1c0.1,0.3-0.1,0.1-0.2,0.2c0,0,0,0-0.1,0
			c0,0-0.1,0-0.1,0c-0.2,0-0.4,0-0.5,0c0,0,0,0-0.1,0c0,0-0.1,0-0.1,0c-0.2,0-0.4,0-0.5,0c-0.1,0-0.1,0-0.2,0c-0.2,0-0.4,0-0.5,0
			c0,0,0,0-0.1,0c0,0-0.1,0-0.1,0c-0.2,0-0.4,0-0.5,0c0,0,0,0-0.1,0c0,0-0.1,0-0.1,0c-0.2,0-0.4,0-0.5,0c0,0,0,0-0.1,0
			c0,0-0.1,0-0.1,0c-0.2,0-0.4,0-0.5,0c0,0,0,0-0.1,0c0,0-0.1,0-0.1,0c-0.2,0-0.4,0-0.5,0c0,0,0,0-0.1,0c0,0-0.1,0-0.1,0
			c-0.2,0-0.4,0-0.5,0c0,0,0,0-0.1,0c0,0-0.1,0-0.1,0c-0.2,0-0.4,0-0.5,0c-0.1,0-0.1,0-0.2,0c-0.2,0-0.4,0-0.5,0c-0.1,0-0.1,0-0.2,0
			c0,0,0,0,0-0.1c0-0.6,0-1.3,0-1.9c0,0,0,0,0,0c0,0,0,0,0,0c0,0,0.1,0,0.1,0c0.2,0,0.4,0,0.6,0c0,0,0.1,0,0.1,0c0.2,0,0.4,0,0.6,0
			c0,0,0.1,0,0.1,0c0.2,0,0.4,0,0.6,0c0,0,0.1,0,0.1,0c0.2,0,0.4,0,0.6,0c0,0,0.1,0,0.1,0c0.2,0,0.4,0,0.5,0c0.1,0,0.1,0,0.2,0
			c0.2,0,0.4,0,0.6,0C983.9,101,984,101,984,101z"/>
		<path class="st24" d="M973.3,103.9c-0.2,0.2-0.3,0.3-0.5,0.5c-0.1-0.1-0.3-0.2-0.4-0.3c0,0,0,0,0-0.1c0.1,0,0.3,0,0.4,0
			c0.1,0,0.2,0,0.2-0.2c0-0.1,0.1-0.2,0.1-0.4C973.3,103.7,973.3,103.8,973.3,103.9z"/>
		<path class="st24" d="M978.3,99.7c-0.2,0.1-0.3,0.3-0.5,0.5c-0.1-0.1-0.3-0.2-0.4-0.3c0.2-0.1,0.3,0,0.4,0c0.1,0,0.2,0,0.2-0.2
			c0-0.1,0.1-0.2,0.1-0.4C978.2,99.4,978.2,99.6,978.3,99.7z"/>
		<path class="st24" d="M973.3,101.2c-0.2,0.1-0.3,0.3-0.5,0.5c-0.1-0.1-0.3-0.2-0.4-0.3c0.2-0.1,0.3,0,0.4,0c0.1,0,0.2,0,0.2-0.1
			c0-0.1,0.1-0.3,0.1-0.4C973.3,100.9,973.3,101,973.3,101.2z"/>
		<path class="st24" d="M978.1,100.4c0.1-0.2,0.3-0.3,0.4-0.4c0-0.1,0.1-0.1,0.1-0.2c0.1,0,0.2,0,0.3,0c0,0,0,0,0,0
			c-0.1,0.1-0.2,0.2-0.3,0.2c-0.1,0.1-0.1,0.1-0.1,0.2c0,0.1,0.1,0.3,0.1,0.4C978.4,100.7,978.3,100.5,978.1,100.4z"/>
		<path class="st24" d="M978.1,103.2c0.1-0.2,0.3-0.3,0.4-0.4c0-0.1,0.1-0.1,0.1-0.2c0.1,0,0.2,0,0.3,0c-0.1,0.1-0.2,0.2-0.4,0.3
			c-0.1,0-0.1,0.1-0.1,0.2c0,0.1,0.1,0.3,0.1,0.4C978.4,103.4,978.3,103.3,978.1,103.2z"/>
		<path class="st24" d="M978.2,106c0.1-0.2,0.2-0.3,0.4-0.4c0.1-0.1,0.1-0.1,0.1-0.2c0.1,0,0.1,0,0.2,0c-0.1,0.1-0.3,0.2-0.4,0.3
			c-0.1,0-0.1,0.1-0.1,0.2c0,0.1,0.1,0.3,0.1,0.4C978.4,106.2,978.3,106.1,978.2,106z"/>
		<path class="st24" d="M975.3,105.5c-0.1,0.2-0.3,0.3-0.4,0.4c-0.1,0.1-0.1,0.1-0.1,0.2c-0.1,0.1-0.2,0.2-0.3,0.2c0,0,0,0,0,0
			c0-0.1,0-0.1,0.1-0.2c0.1,0,0.2-0.1,0.2-0.1c0.1-0.2,0.3-0.3,0.4-0.5C975.2,105.4,975.2,105.4,975.3,105.5z"/>
		<path class="st25" d="M975.2,102.7c-0.1,0.2-0.3,0.3-0.5,0.5c-0.1,0.1-0.1,0.1-0.1,0.2c-0.1,0.1-0.1,0.1-0.2,0.2c0,0,0,0,0,0
			c0-0.1,0-0.2,0.1-0.3c0.2-0.2,0.4-0.4,0.6-0.6C975.1,102.7,975.2,102.7,975.2,102.7z"/>
		<path class="st25" d="M975.2,99.9c-0.1,0.2-0.4,0.4-0.5,0.6c-0.1,0.1-0.1,0.1-0.2,0.2c0,0-0.1,0.1-0.1,0.1c0,0,0,0,0,0
			c0-0.1,0.1-0.2,0.1-0.3c0.1,0,0.2-0.1,0.2-0.1c0.1-0.1,0.3-0.2,0.3-0.4C975.1,99.9,975.2,99.9,975.2,99.9z"/>
		<path class="st24" d="M977.7,102.9c-0.1-0.1-0.2-0.2-0.4-0.3c0.2,0,0.4,0,0.6,0C977.9,102.7,977.8,102.8,977.7,102.9z"/>
		<path class="st25" d="M971.2,105.8c0.1,0,0.2-0.2,0.3-0.2c0.1-0.1,0.1-0.1,0.2-0.2c0,0,0,0,0,0c-0.1,0.2-0.3,0.4-0.6,0.6
			C971.2,105.9,971.2,105.9,971.2,105.8z"/>
		<path class="st25" d="M977.7,102.9c0-0.1,0.2-0.2,0.2-0.3l0,0c0.1,0,0.2-0.2,0.3-0.2c0,0.1,0.1,0.1,0.1,0.2
			c-0.1,0-0.2,0.1-0.3,0.2C978,102.8,977.9,102.9,977.7,102.9C977.8,102.9,977.8,102.9,977.7,102.9z"/>
		<path class="st25" d="M971.2,103c0.2-0.1,0.3-0.3,0.5-0.5c0,0,0,0.1,0.1,0.1c-0.2,0.2-0.3,0.4-0.6,0.5
			C971.2,103.1,971.2,103.1,971.2,103z"/>
		<path class="st25" d="M977.7,105.7c0.2-0.2,0.3-0.4,0.5-0.5c0,0,0,0.1,0,0.1c-0.2,0.1-0.2,0.2-0.3,0.3
			C977.9,105.7,977.9,105.7,977.7,105.7C977.8,105.7,977.8,105.7,977.7,105.7z"/>
		<path class="st24" d="M976.1,98.8c0.1,0,0.2-0.2,0.3-0.2c0.1-0.1,0.1-0.1,0.2-0.2c0,0,0,0.1,0,0.1c-0.1,0.2-0.3,0.4-0.5,0.5
			C976.2,98.9,976.2,98.8,976.1,98.8z"/>
		<path class="st24" d="M978.2,102.4c-0.1,0-0.2,0.2-0.3,0.2c0.1-0.2,0.1-0.3,0.2-0.5C978.2,102.2,978.2,102.3,978.2,102.4z"/>
		<path class="st26" d="M979.6,105L979.6,105c0,0.7,0,1.3,0,2C979.6,106.3,979.6,105.7,979.6,105z"/>
		<path class="st26" d="M979.6,101L979.6,101c0,0.7,0,1.3,0,1.9C979.6,102.3,979.6,101.7,979.6,101z"/>
		<path class="st26" d="M979.6,99C979.6,99.1,979.6,99.1,979.6,99c0-0.6,0-1.2,0-1.7c0-0.1,0-0.1,0-0.2c0,0,0,0,0,0
			c0,0.4,0,0.8,0,1.2C979.6,98.5,979.6,98.8,979.6,99z"/>
		<path class="st27" d="M979.8,103.1c0,0.1-0.1,0.2-0.2,0.2c0-0.1,0-0.1,0-0.2C979.7,103,979.7,103.1,979.8,103.1z"/>
		<path class="st27" d="M977.2,101.3C977.2,101.3,977.2,101.3,977.2,101.3C977.2,101.3,977.2,101.3,977.2,101.3
			C977.2,101.3,977.2,101.3,977.2,101.3z"/>
		<path class="st26" d="M979.6,100.4C979.6,100.4,979.6,100.4,979.6,100.4C979.6,100.4,979.6,100.4,979.6,100.4
			C979.6,100.4,979.6,100.4,979.6,100.4z"/>
		<path class="st26" d="M979.6,104.6C979.6,104.6,979.6,104.6,979.6,104.6C979.6,104.6,979.6,104.6,979.6,104.6
			C979.6,104.6,979.6,104.6,979.6,104.6z"/>
		<path class="st27" d="M973.9,104.1C973.9,104.1,973.9,104.1,973.9,104.1C973.9,104.1,973.9,104.1,973.9,104.1
			C973.9,104.1,973.9,104.1,973.9,104.1z"/>
		<path class="st24" d="M974.4,106.3C974.4,106.3,974.4,106.3,974.4,106.3C974.4,106.3,974.4,106.3,974.4,106.3
			C974.4,106.3,974.4,106.3,974.4,106.3z"/>
		<path class="st27" d="M973.9,101.3C973.9,101.3,973.9,101.3,973.9,101.3C973.9,101.3,973.9,101.3,973.9,101.3
			C973.9,101.3,973.9,101.3,973.9,101.3z"/>
		<path class="st25" d="M974.4,100.8C974.4,100.8,974.4,100.8,974.4,100.8C974.4,100.8,974.4,100.8,974.4,100.8
			C974.4,100.8,974.4,100.8,974.4,100.8z"/>
		<path class="st25" d="M974.4,103.5C974.4,103.6,974.4,103.6,974.4,103.5C974.4,103.6,974.4,103.5,974.4,103.5
			C974.4,103.5,974.4,103.5,974.4,103.5z"/>
		<path class="st23" d="M973,109c0.1,0,0.1,0,0.2,0c0.2,0,0.4,0,0.5,0c0.1,0,0.1,0,0.2,0c0.2,0,0.4,0,0.5,0c0.1,0,0.1,0,0.2,0
			c0.2,0,0.4,0,0.5,0c0.1,0,0.1,0,0.2,0c0.2,0,0.4,0,0.5,0c0.1,0,0.1,0,0.2,0c0.2,0,0.4,0,0.5,0c0.1,0,0.1,0,0.2,0
			c0.2,0,0.4,0,0.5,0c0.1,0,0.1,0,0.2,0c0.2,0,0.4,0,0.5,0c0.1,0,0.1,0,0.2,0c0.2,0,0.4,0,0.5,0c0.1,0,0.1,0,0.2,0
			c0.2,0,0.4,0,0.5,0c0.1,0,0.1,0,0.2,0c0.2,0,0.4,0,0.5,0c0.1,0,0.1,0,0.2,0c0.2,0,0.4,0,0.5,0c0.1,0,0.1,0,0.2,0
			c0.2,0,0.4,0,0.5,0c0.1,0,0.1,0,0.2,0c0.2,0,0.4,0,0.5,0c0.1,0,0.1,0,0.2,0c0.2,0,0.4,0,0.5,0c0.1,0,0.1,0,0.2,0
			c0.2,0,0.4,0,0.5,0c0.1,0,0.1,0,0.2,0c0.2,0,0.4,0,0.5,0c0.1,0,0.1,0,0.2,0c0.2,0,0.4,0,0.5,0c0.1,0,0.1,0,0.2,0
			c0.2,0,0.4,0,0.5,0c0.1,0,0.1,0,0.2,0c0.2,0,0.4,0,0.5,0c0.1,0,0.1,0,0.2,0c0.2,0,0.3,0,0.5,0c0,0,0,0.1,0,0.1
			c-0.1,0.3-0.3,0.6-0.4,0.9c-0.1,0.1-0.1,0.3-0.2,0.4c-0.1,0.1-0.2,0.2-0.2,0.4c-0.1,0.2-0.2,0.3-0.4,0.2c0,0-0.1,0-0.1,0
			c-0.2,0-0.4,0-0.6,0c0,0-0.1,0-0.1,0c-0.2,0-0.4,0-0.6,0c0,0-0.1,0-0.1,0c-0.2,0-0.4,0-0.6,0c0,0-0.1,0-0.1,0c-0.2,0-0.4,0-0.6,0
			c0,0-0.1,0-0.1,0c-0.2,0-0.4,0-0.6,0c0,0-0.1,0-0.1,0c-0.2,0-0.4,0-0.6,0c0,0-0.1,0-0.1,0c-0.2,0-0.4,0-0.6,0c0,0-0.1,0-0.1,0
			c-0.2,0-0.4,0-0.6,0c0,0-0.1,0-0.1,0c-0.2,0-0.4,0-0.6,0c0,0-0.1,0-0.1,0c-0.2,0-0.4,0-0.6,0c0,0-0.1,0-0.1,0c-0.2,0-0.4,0-0.6,0
			c0,0-0.1,0-0.1,0c-0.2,0-0.4,0-0.6,0c0,0-0.1,0-0.1,0c-0.2,0-0.4,0-0.6,0c0,0-0.1,0-0.1,0c-0.2,0-0.4,0-0.6,0c0,0-0.1,0-0.1,0
			c-0.2,0-0.4,0-0.6,0c0,0-0.1,0-0.1,0c-0.2,0-0.4,0-0.6,0c0,0-0.1,0-0.1,0c-0.2,0-0.4,0-0.6,0c0,0-0.1,0-0.1,0c-0.2,0-0.4,0-0.6,0
			c0,0-0.1,0-0.1,0c-0.2,0-0.4,0-0.6,0c0,0-0.1,0-0.1,0c-0.2,0-0.4,0-0.6,0c0,0-0.1,0-0.1,0c0,0,0,0,0,0c-0.4,0.1-0.6-0.1-0.8-0.4
			c0,0,0-0.1-0.1-0.1c0-0.1-0.1-0.2-0.1-0.3c0-0.1-0.1-0.1-0.1-0.2c0-0.1-0.1-0.2-0.1-0.3c0,0,0-0.1,0-0.1c0-0.1-0.1-0.2-0.1-0.4
			c0-0.1,0-0.1-0.1-0.1c0-0.1,0-0.1,0.1-0.1c0.1,0,0.1,0,0.2,0c0.2,0,0.4,0,0.5,0c0.1,0,0.1,0,0.2,0c0.2,0,0.4,0,0.5,0
			c0.1,0,0.1,0,0.2,0c0.2,0,0.4,0,0.5,0c0.1,0,0.1,0,0.2,0C972.7,109,972.9,109,973,109z"/>
		<path class="st28" d="M973.1,113.2c0,0-0.1-0.1-0.1-0.1c0.1,0,0.2,0,0.3,0c0.1,0,0.1,0,0.2,0c0.2,0,0.4,0,0.5,0c0.1,0,0.1,0,0.2,0
			c0.2,0,0.4,0,0.5,0c0.1,0,0.1,0,0.2,0c0.2,0,0.4,0,0.5,0c0.1,0,0.1,0,0.2,0c0.2,0,0.4,0,0.5,0c0.1,0,0.1,0,0.2,0
			c0.2,0,0.4,0,0.5,0c0.1,0,0.1,0,0.2,0c0.2,0,0.4,0,0.5,0c0.1,0,0.1,0,0.2,0c0.2,0,0.4,0,0.5,0c0.1,0,0.1,0,0.2,0
			c0.2,0,0.4,0,0.5,0c0.1,0,0.1,0,0.2,0c0.2,0,0.4,0,0.5,0c0.1,0,0.1,0,0.2,0c0.2,0,0.4,0,0.5,0c0.1,0,0.1,0,0.2,0
			c0.2,0,0.4,0,0.5,0c0.1,0,0.1,0,0.2,0c0.2,0,0.4,0,0.5,0c0.1,0,0.1,0,0.2,0c0.2,0,0.4,0,0.5,0c0.1,0,0.1,0,0.2,0
			c0.2,0,0.4,0,0.5,0c0.1,0,0.1,0,0.2,0c0.2,0,0.4,0,0.5,0c0.1,0,0.1,0,0.2,0c0.1,0,0.1,0,0.3,0c-0.4,0.3-0.8,0.6-1.2,0.9
			c-0.1,0.1-0.3,0.1-0.4,0.2c-0.3,0.1-0.6,0.2-0.8,0.4c-0.1,0-0.2,0.1-0.3,0.1c-1,0.3-2,0.5-3,0.4c-1,0-1.9-0.2-2.9-0.5
			c0,0-0.1,0-0.1,0c0,0-0.1,0-0.1-0.1c-0.1-0.1-0.3-0.1-0.4-0.2c0,0-0.1,0-0.1-0.1c-0.1-0.1-0.2-0.1-0.3-0.2c0,0-0.1,0-0.1-0.1
			c-0.1-0.1-0.2-0.1-0.3-0.2c0,0-0.1-0.1-0.1-0.1c-0.1-0.1-0.2-0.1-0.3-0.2c0,0-0.1,0-0.1-0.1C973.4,113.4,973.3,113.3,973.1,113.2
			C973.2,113.2,973.1,113.2,973.1,113.2z"/>
		<path class="st23" d="M979.6,99c0-0.3,0-0.5,0-0.8c0-0.4,0-0.8,0-1.2c0.6,0.1,1.3,0.2,1.9,0.4c0.1,0,0.1,0,0.2,0.1
			c0,0,0.1,0.1,0.1,0.1c0.1,0,0.2,0.1,0.4,0.1c0,0,0.1,0,0.1,0c0.1,0.1,0.2,0.1,0.4,0.2c0,0,0.1,0.1,0.1,0.1c0.1,0,0.2,0.1,0.3,0.1
			c0,0,0.1,0.1,0.1,0.1c0.1,0.1,0.2,0.1,0.3,0.2c0,0,0.1,0.1,0.2,0.1c0.1,0.1,0.2,0.1,0.3,0.2c0,0,0,0,0.1,0.1
			c0.1,0,0.1,0.1,0.2,0.2c-0.2,0-0.3,0-0.5,0c0-0.1-0.1,0-0.1,0c-0.2,0-0.4,0-0.6,0c0-0.1-0.1,0-0.1,0c-0.2,0-0.4,0-0.6,0
			c0-0.1-0.1,0-0.1,0c-0.2,0-0.4,0-0.6,0c0-0.1-0.1,0-0.1,0c-0.2,0-0.4,0-0.6,0c0-0.1-0.1,0-0.1,0c-0.2,0-0.4,0-0.5,0
			c-0.1,0-0.1,0-0.2,0C979.9,99.1,979.8,99.1,979.6,99z"/>
		<path class="st26" d="M986.7,103.1C986.7,103.1,986.7,103.1,986.7,103.1C986.8,103,986.8,103,986.7,103.1
			C986.8,103.1,986.8,103.1,986.7,103.1z"/>
		<path class="st26" d="M980.6,105C980.6,105,980.6,105,980.6,105C980.6,105,980.6,105,980.6,105C980.5,105,980.6,105,980.6,105z"/>
		<path class="st26" d="M979.9,105C979.9,105,979.9,105,979.9,105C979.9,105,979.9,105,979.9,105C979.8,105,979.9,105,979.9,105z"/>
		<path class="st26" d="M984.8,105C984.8,105,984.8,105,984.8,105C984.8,105,984.8,105,984.8,105C984.8,105,984.8,105,984.8,105z"/>
		<path class="st26" d="M984.1,105C984.1,105,984.1,105,984.1,105C984.1,105,984.1,105,984.1,105C984.1,105,984.1,105,984.1,105z"/>
		<path class="st26" d="M981.3,105C981.3,105,981.3,105,981.3,105C981.3,105,981.3,105,981.3,105C981.2,105,981.3,105,981.3,105z"/>
		<path class="st26" d="M982.7,105C982.7,105,982.7,105,982.7,105C982.7,105,982.7,105,982.7,105C982.7,105,982.7,105,982.7,105z"/>
		<path class="st26" d="M982,105C982,105,982,105,982,105C982,105,982,105,982,105C982,105,982,105,982,105z"/>
		<path class="st26" d="M986,103.1C986,103.1,986,103.1,986,103.1C986.1,103,986.1,103,986,103.1C986.1,103.1,986.1,103.1,986,103.1
			z"/>
		<path class="st26" d="M984.6,103.1C984.6,103.1,984.6,103.1,984.6,103.1C984.7,103,984.7,103,984.6,103.1
			C984.7,103.1,984.7,103.1,984.6,103.1z"/>
		<path class="st26" d="M983.9,103.1C983.9,103.1,983.9,103.1,983.9,103.1C984,103,984,103,983.9,103.1
			C984,103.1,984,103.1,983.9,103.1z"/>
		<path class="st26" d="M981.1,103.1C981.1,103.1,981.1,103.1,981.1,103.1C981.1,103,981.2,103,981.1,103.1
			C981.2,103.1,981.1,103.1,981.1,103.1z"/>
		<path class="st26" d="M981.8,103.1C981.8,103.1,981.8,103.1,981.8,103.1C981.8,103,981.9,103,981.8,103.1
			C981.9,103.1,981.8,103.1,981.8,103.1z"/>
		<path class="st26" d="M982.5,103.1C982.5,103.1,982.5,103.1,982.5,103.1C982.5,103,982.6,103,982.5,103.1
			C982.6,103.1,982.5,103.1,982.5,103.1z"/>
		<path class="st26" d="M983.2,103.1C983.2,103.1,983.2,103.1,983.2,103.1C983.2,103,983.3,103,983.2,103.1
			C983.3,103.1,983.3,103.1,983.2,103.1z"/>
		<path class="st26" d="M979.7,101C979.7,101,979.7,101,979.7,101C979.7,101,979.6,101,979.7,101C979.6,101,979.6,101,979.7,101z"/>
	</g>
	<g>
		<text transform="matrix(1 0 0 1 1020.3423 111.1352)" class="st17 st11 st10">USD</text>
	</g>
	<g>
		<text transform="matrix(1 0 0 1 824.7125 109.4984)" class="st17 st11 st10">Travel Agent</text>
	</g>
	<g>
		<g>
			<g>
				<text transform="matrix(1 0 0 1 712.5511 158.9386)" class="st29 st9 st13">Departure</text>
			</g>
			<text transform="matrix(1 0 0 1 729.013 176.9386)" class="st12 st11 st10">Oct 2, 1:00 PM</text>
			<g>
				<path class="st1" d="M718.4,167.4c-3,0-5.5,2.5-5.5,5.5c0,3,2.5,5.5,5.5,5.5c3,0,5.5-2.5,5.5-5.5
					C723.9,169.9,721.4,167.4,718.4,167.4L718.4,167.4z M718.4,177.2c-2.4,0-4.3-1.9-4.3-4.3s1.9-4.3,4.3-4.3c2.4,0,4.3,1.9,4.3,4.3
					S720.8,177.2,718.4,177.2L718.4,177.2z M718.4,177.2"/>
				<path class="st1" d="M721.3,172.7h-2.5v-3c0-0.2-0.2-0.5-0.5-0.5c-0.2,0-0.5,0.2-0.5,0.5v3.4c0,0.3,0.2,0.5,0.5,0.5h2.9
					c0.3,0,0.5-0.2,0.5-0.5C721.7,172.9,721.5,172.7,721.3,172.7L721.3,172.7z M721.3,172.7"/>
			</g>
		</g>
		<g>
			<g>
				<text transform="matrix(1 0 0 1 841.5023 158.9196)" class="st29 st9 st13">No. Passengers</text>
			</g>
			<g>
				<g>
					<text transform="matrix(1 0 0 1 858.3099 177.9196)" class="st12 st11 st10">1</text>
				</g>
				<g>
					<path class="st1" d="M852.3,176.4c-0.5-0.2-1.3-0.2-1.7-0.4c-0.3-0.1-0.7-0.2-0.8-0.4c-0.1-0.2-0.1-1.3-0.1-1.3
						s0.3-0.3,0.4-0.6c0.1-0.3,0.2-1.2,0.2-1.2s0,0,0.1,0c0.1,0,0.3-0.1,0.3-0.5c0.1-0.5,0.3-0.8,0.2-1.2c0-0.3-0.1-0.3-0.2-0.3
						c0,0-0.1,0-0.1,0s0.3-0.4,0.3-1.7c0-1.3-1-2.6-2.9-2.6c-1.9,0-2.9,1.3-2.9,2.6c0,1.3,0.3,1.7,0.3,1.7s0,0-0.1,0
						c-0.1,0-0.2,0-0.2,0.3c0,0.4,0.1,0.6,0.2,1.2c0.1,0.4,0.3,0.5,0.3,0.5c0,0,0.1,0,0.1,0s0.1,0.9,0.2,1.2
						c0.1,0.3,0.4,0.6,0.4,0.6s0,1.1-0.1,1.3c-0.1,0.2-0.5,0.3-0.8,0.4c-0.4,0.1-1.2,0.2-1.7,0.4c-0.5,0.2-2.1,0.9-2.1,2.9h12.5
						C854.4,177.3,852.9,176.6,852.3,176.4z"/>
				</g>
			</g>
			<g>
				<path class="st1" d="M903.5,166.9c-3.8,0-6.8,3-6.8,6.8c0,3.8,3,6.8,6.8,6.8c3.8,0,6.8-3,6.8-6.8
					C910.3,169.9,907.3,166.9,903.5,166.9L903.5,166.9z M907.2,173.9c0,0.2-0.1,0.3-0.3,0.3h-2.6c-0.1,0-0.2,0.1-0.2,0.2v2.6
					c0,0.2-0.1,0.3-0.3,0.3h-0.6c-0.2,0-0.3-0.1-0.3-0.3v-2.6c0-0.1-0.1-0.2-0.2-0.2h-2.6c-0.2,0-0.3-0.1-0.3-0.3v-0.6
					c0-0.2,0.1-0.3,0.3-0.3h2.6c0.1,0,0.2-0.1,0.2-0.2v-2.6c0-0.2,0.1-0.3,0.3-0.3h0.6c0.2,0,0.3,0.1,0.3,0.3v2.6
					c0,0.1,0.1,0.2,0.2,0.2h2.6c0.2,0,0.3,0.1,0.3,0.3V173.9z M907.2,173.9"/>
			</g>
			<g>
				<path class="st1" d="M920.4,166.8c-3.8,0-7,3.1-7,7c0,3.8,3.1,7,7,7c3.8,0,7-3.1,7-7C927.4,169.9,924.3,166.8,920.4,166.8
					L920.4,166.8z M923.8,174.3h-6.7c-0.3,0-0.5-0.2-0.5-0.5s0.2-0.5,0.5-0.5h6.7c0.3,0,0.5,0.2,0.5,0.5S924.1,174.3,923.8,174.3
					L923.8,174.3z M923.8,174.3"/>
			</g>
		</g>
	</g>
	<text transform="matrix(1 0 0 1 140.6402 39.1906)"><tspan x="0" y="0" class="st30 st11 st31">Navigation Bar</tspan><tspan x="0" y="19.2" class="st32 st11 st33">Changes. increased height field, Sort &amp; Filter Buttons, Button Distance, Roundtrip Clarity</tspan></text>
	<g>
		<g>
			<text transform="matrix(1 0 0 1 446.1765 158.9196)" class="st29 st9 st13">To</text>
		</g>
		<text transform="matrix(1 0 0 1 461.6765 176.9196)" class="st12 st11 st10">San Francisco Marriott Marquis, Mis...</text>
		<g>
			<path class="st1" d="M451.3,164.8c-2.5,0-4.5,2-4.5,4.5c0,1,0.6,2.6,2,5c0.9,1.7,1.8,3.1,1.9,3.1l0.7,1l0.7-1
				c0-0.1,1-1.4,1.9-3.1c1.3-2.4,2-4,2-5C455.8,166.8,453.7,164.8,451.3,164.8L451.3,164.8z M451.3,171.6c-1.3,0-2.3-1-2.3-2.3
				c0-1.3,1-2.3,2.3-2.3c1.3,0,2.3,1,2.3,2.3C453.6,170.5,452.5,171.6,451.3,171.6L451.3,171.6z M451.3,171.6"/>
		</g>
	</g>
	<g>
		<g>
			<text transform="matrix(1 0 0 1 140.8074 158.9196)" class="st29 st9 st13">From</text>
		</g>
		<text transform="matrix(1 0 0 1 157.1404 176.9196)" class="st12 st11 st10">SFO: San Francisco, CA - San Franci...</text>
		<g>
			<g>
				<path class="st1" d="M146.1,168.4c1.9,0,3.5,1.6,3.5,3.5s-1.6,3.5-3.5,3.5s-3.5-1.6-3.5-3.5S144.2,168.4,146.1,168.4
					 M146.1,166.4c-3,0-5.5,2.5-5.5,5.5s2.5,5.5,5.5,5.5s5.5-2.5,5.5-5.5S149.2,166.4,146.1,166.4L146.1,166.4z"/>
			</g>
		</g>
	</g>
	<line class="st34" x1="419.4" y1="129.8" x2="419.4" y2="199.8"/>
	<g>
		<circle class="st35" cx="419.4" cy="172.8" r="15"/>
		<g>
			<line class="st36" x1="412.4" y1="172.8" x2="426.4" y2="172.8"/>
			<polyline class="st36" points="422.3,168.4 426.4,172.8 422.3,177.2 			"/>
		</g>
	</g>
	<rect x="404.4" y="157.8" class="st37" width="30" height="30"/>
	<line class="st34" x1="0" y1="130.5" x2="1199.8" y2="130.5"/>
	<g>
		<g>
			<path class="st38" d="M1002.3,105l-3.4,3.3c-0.4,0.4-1,0.4-1.4,0L994,105"/>
		</g>
		<g>
			<path class="st38" d="M1062.6,105l-3.4,3.3c-0.4,0.4-1,0.4-1.4,0l-3.4-3.3"/>
		</g>
	</g>
	<line class="st39" x1="13.5" y1="180.8" x2="695.4" y2="180.8"/>
	<g>
		<text transform="matrix(1 0 0 1 13.902 173.9386)" class="st40 st41 st13">Aligned with Text</text>
	</g>
	<text transform="matrix(1 0 0 1 391.8708 143.5773)" class="st40 st41 st13">30 x 30px</text>
	<g>
		<text transform="matrix(1 0 0 1 1140.6934 166.9806)" class="st40 st41 st13">h: 70px</text>
	</g>
	<g>
		<text transform="matrix(1 0 0 1 1140.6934 109.9806)" class="st40 st41 st13">h: 50px</text>
	</g>
	<g>
		<g>
			<line class="st39" x1="1128" y1="135.2" x2="1128" y2="194.5"/>
			<g>
				<rect x="1125.7" y="134.8" class="st40" width="4.6" height="0.7"/>
			</g>
			<g>
				<rect x="1125.7" y="194.1" class="st40" width="4.6" height="0.7"/>
			</g>
		</g>
	</g>
	<g>
		<g>
			<line class="st39" x1="1128" y1="85.7" x2="1128" y2="125"/>
			<g>
				<rect x="1125.7" y="85.3" class="st40" width="4.6" height="0.7"/>
			</g>
			<g>
				<rect x="1125.7" y="124.6" class="st40" width="4.6" height="0.7"/>
			</g>
		</g>
	</g>
	<g>
		<g>
			<line class="st39" x1="435.1" y1="153.4" x2="403.8" y2="153.4"/>
			<g>
				<rect x="434.8" y="151.1" class="st40" width="0.7" height="4.5"/>
			</g>
			<g>
				<rect x="403.5" y="151.1" class="st40" width="0.7" height="4.5"/>
			</g>
		</g>
	</g>
	<text transform="matrix(1 0 0 1 1140.6934 234.5225)" class="st7 st41 st13">h: 50px</text>
	<g>
		<g>
			<line class="st42" x1="1128" y1="207.1" x2="1128" y2="255"/>
			<g>
				<rect x="1125.7" y="206.8" class="st7" width="4.6" height="0.7"/>
			</g>
			<g>
				<rect x="1125.7" y="254.7" class="st7" width="4.6" height="0.7"/>
			</g>
		</g>
	</g>
	<g>
		<g>
			<line class="st42" x1="382" y1="213.2" x2="382" y2="244.5"/>
			<g>
				<rect x="379.7" y="212.9" class="st7" width="4.5" height="0.7"/>
			</g>
			<g>
				<rect x="379.7" y="244.2" class="st7" width="4.5" height="0.7"/>
			</g>
		</g>
	</g>
	<rect x="945.2" y="199.9" class="st45" width="10.6" height="59.6"/>
	<rect x="927.3" y="130.7" class="st45" width="20" height="69.3"/>
	<rect x="820.4" y="130.7" class="st45" width="20" height="69.3"/>
	<rect x="700.4" y="130.7" class="st45" width="12.6" height="69.3"/>
	<rect x="434.4" y="130.7" class="st45" width="12.6" height="69.3"/>
	<rect x="392.3" y="130.7" class="st45" width="12.6" height="69.3"/>
	<rect x="1005.3" y="130.7" class="st45" width="20" height="69.3"/>
	<rect x="195.8" y="199.9" class="st45" width="20" height="59.4"/>
	<rect x="240.9" y="199.9" class="st45" width="20" height="59.4"/>
	<rect x="285.9" y="199.9" class="st45" width="20" height="59.4"/>
	<rect x="331" y="199.9" class="st45" width="20" height="59.4"/>
	<text transform="matrix(1 0 0 1 392.3423 233.3701)" class="st7 st41 st13">25 x 25px</text>
	<rect x="215.9" y="216.8" class="st37" width="25" height="25"/>
	<rect x="260.9" y="216.8" class="st37" width="25" height="25"/>
	<rect x="306" y="216.8" class="st37" width="25" height="25"/>
	<rect x="351.1" y="216.8" class="st37" width="25" height="25"/>
</g>
<g id="Layer_3">
	<g>
		<text transform="matrix(1 0 0 1 1002.407 338.2429)" class="st12 st9 st13">Roundtrip?</text>
		<g>
			<g>
				<g>
					<path class="st49" d="M1054.1,353c0,5-3.8,9-8.5,9h-27.1c-4.7,0-8.5-4-8.5-9l0,0c0-5,3.8-9,8.5-9h27.1
						C1050.3,344.1,1054.1,348.1,1054.1,353L1054.1,353z"/>
				</g>
				<defs>
					<filter id="Adobe_OpacityMaskFilter_1_" filterUnits="userSpaceOnUse" x="1010" y="344.1" width="44.1" height="18">
						
							<feColorMatrix  type="matrix" values="-1 0 0 0 1  0 -1 0 0 1  0 0 -1 0 1  0 0 0 1 0" color-interpolation-filters="sRGB" result="source"/>
					</filter>
				</defs>
				<mask maskUnits="userSpaceOnUse" x="1010" y="344.1" width="44.1" height="18" id="SVGID_2_">
					<g class="st50">
						
							<image style="overflow:visible;" width="49" height="23" xlink:href="7246336845502159.jpg"  transform="matrix(1 0 0 1 1007.481 341.8692)">
						</image>
					</g>
				</mask>
				<g class="st51">
					<path d="M1054.1,353c0,5-3.8,9-8.5,9h-27.1c-4.7,0-8.5-4-8.5-9l0,0c0-5,3.8-9,8.5-9h27.1C1050.3,344.1,1054.1,348.1,1054.1,353
						L1054.1,353z"/>
				</g>
			</g>
			<g>
				<circle class="st17" cx="1044.5" cy="353" r="7.6"/>
			</g>
		</g>
	</g>
	<g>
		<g>
			<text transform="matrix(1 0 0 1 764.0145 339.2327)" class="st29 st9 st13">Return</text>
		</g>
		<text transform="matrix(1 0 0 1 780.4764 357.2327)" class="st12 st11 st10">Oct 6, 1:00 PM</text>
		<g>
			<path class="st1" d="M769.9,347.7c-3,0-5.5,2.5-5.5,5.5c0,3,2.5,5.5,5.5,5.5c3,0,5.5-2.5,5.5-5.5
				C775.4,350.2,772.9,347.7,769.9,347.7L769.9,347.7z M769.9,357.5c-2.4,0-4.3-1.9-4.3-4.3s1.9-4.3,4.3-4.3c2.4,0,4.3,1.9,4.3,4.3
				S772.3,357.5,769.9,357.5L769.9,357.5z M769.9,357.5"/>
			<path class="st1" d="M772.7,353h-2.5v-3c0-0.2-0.2-0.5-0.5-0.5c-0.2,0-0.5,0.2-0.5,0.5v3.4c0,0.3,0.2,0.5,0.5,0.5h2.9
				c0.3,0,0.5-0.2,0.5-0.5C773.2,353.2,773,353,772.7,353L772.7,353z M772.7,353"/>
		</g>
	</g>
	<line class="st0" x1="765.5" y1="365.6" x2="872.9" y2="365.6"/>
	<g>
		<g>
			<text transform="matrix(1 0 0 1 896.6326 339.2332)" class="st29 st9 st13">No. Passengers</text>
		</g>
		<g>
			<g>
				<text transform="matrix(1 0 0 1 913.4402 358.2332)" class="st12 st11 st10">1</text>
			</g>
			<g>
				<path class="st1" d="M907.5,356.7c-0.5-0.2-1.3-0.2-1.7-0.4c-0.3-0.1-0.7-0.2-0.8-0.4c-0.1-0.2-0.1-1.3-0.1-1.3s0.3-0.3,0.4-0.6
					c0.1-0.3,0.2-1.2,0.2-1.2s0,0,0.1,0c0.1,0,0.3-0.1,0.3-0.5c0.1-0.5,0.3-0.8,0.2-1.2c0-0.3-0.1-0.3-0.2-0.3c0,0-0.1,0-0.1,0
					s0.3-0.4,0.3-1.7c0-1.3-1-2.6-2.9-2.6c-1.9,0-2.9,1.3-2.9,2.6c0,1.3,0.3,1.7,0.3,1.7s0,0-0.1,0c-0.1,0-0.2,0-0.2,0.3
					c0,0.4,0.1,0.6,0.2,1.2c0.1,0.4,0.3,0.5,0.3,0.5c0,0,0.1,0,0.1,0s0.1,0.9,0.2,1.2c0.1,0.3,0.4,0.6,0.4,0.6s0,1.1-0.1,1.3
					c-0.1,0.2-0.5,0.3-0.8,0.4c-0.4,0.1-1.2,0.2-1.7,0.4c-0.5,0.2-2.1,0.9-2.1,2.9h12.5C909.5,357.7,908,356.9,907.5,356.7z"/>
			</g>
		</g>
		<g>
			<path class="st1" d="M958.6,347.2c-3.8,0-6.8,3-6.8,6.8c0,3.8,3,6.8,6.8,6.8c3.8,0,6.8-3,6.8-6.8
				C965.4,350.2,962.4,347.2,958.6,347.2L958.6,347.2z M962.3,354.3c0,0.2-0.1,0.3-0.3,0.3h-2.6c-0.1,0-0.2,0.1-0.2,0.2v2.6
				c0,0.2-0.1,0.3-0.3,0.3h-0.6c-0.2,0-0.3-0.1-0.3-0.3v-2.6c0-0.1-0.1-0.2-0.2-0.2h-2.6c-0.2,0-0.3-0.1-0.3-0.3v-0.6
				c0-0.2,0.1-0.3,0.3-0.3h2.6c0.1,0,0.2-0.1,0.2-0.2v-2.6c0-0.2,0.1-0.3,0.3-0.3h0.6c0.2,0,0.3,0.1,0.3,0.3v2.6
				c0,0.1,0.1,0.2,0.2,0.2h2.6c0.2,0,0.3,0.1,0.3,0.3V354.3z M962.3,354.3"/>
		</g>
		<g>
			<path class="st1" d="M975.6,347.1c-3.8,0-7,3.1-7,7s3.1,7,7,7s7-3.1,7-7S979.4,347.1,975.6,347.1L975.6,347.1z M978.9,354.6h-6.7
				c-0.3,0-0.5-0.2-0.5-0.5s0.2-0.5,0.5-0.5h6.7c0.3,0,0.5,0.2,0.5,0.5S979.2,354.6,978.9,354.6L978.9,354.6z M978.9,354.6"/>
		</g>
	</g>
	<g>
		
			<image style="overflow:visible;opacity:0.15;" width="333" height="393" xlink:href="724633684550215B.png"  transform="matrix(1 0 0 1 759.481 366.8692)">
		</image>
		<g>
			<path class="st7" d="M1082.5,372.6c1.7,0,3,1.3,3,3v374.1c0,1.7-1.3,3-3,3h-314c-1.6,0-3-1.3-3-3V375.6c0-1.7,1.4-3,3-3H1082.5z"
				/>
		</g>
	</g>
	<line class="st35" x1="795.6" y1="416.7" x2="1055.6" y2="416.7"/>
	<circle class="st1" cx="965.6" cy="558.7" r="15"/>
	<circle class="st52" cx="965.5" cy="518.9" r="15"/>
	<text transform="matrix(1 0 0 1 997.3395 443.1287)" class="st12 st11 st10">Fri</text>
	<text transform="matrix(1 0 0 1 1034.9474 443.1287)" class="st12 st11 st10">Sat</text>
	<text transform="matrix(1 0 0 1 911.6486 443.1287)" class="st12 st11 st10">Wed</text>
	<text transform="matrix(1 0 0 1 953.5226 443.1287)" class="st12 st11 st10">Thu</text>
	<text transform="matrix(1 0 0 1 831.4054 443.1287)" class="st12 st11 st10">Mon</text>
	<text transform="matrix(1 0 0 1 793.1906 443.1287)" class="st12 st11 st10">Sun</text>
	<text transform="matrix(1 0 0 1 873.7292 443.1287)" class="st12 st11 st10">Tue</text>
	<text transform="matrix(1 0 0 1 1001.6061 483.1629)"><tspan x="0" y="0" class="st12 st11 st10">1</tspan><tspan x="0" y="40" class="st12 st11 st10">8</tspan><tspan x="-3.9" y="80" class="st12 st11 st10">15</tspan><tspan x="-3.9" y="120" class="st12 st11 st10">22</tspan><tspan x="-3.9" y="160" class="st12 st11 st10">29</tspan><tspan x="0" y="200" class="st53 st11 st10">6</tspan></text>
	<text transform="matrix(1 0 0 1 1041.6061 483.1629)"><tspan x="0" y="0" class="st12 st11 st10">2</tspan><tspan x="0" y="40" class="st12 st11 st10">9</tspan><tspan x="-3.9" y="80" class="st12 st11 st10">16</tspan><tspan x="-3.9" y="120" class="st12 st11 st10">23</tspan><tspan x="-3.9" y="160" class="st12 st11 st10">30</tspan><tspan x="0" y="200" class="st53 st11 st10">7</tspan></text>
	<text transform="matrix(1 0 0 1 917.592 483.1629)"><tspan x="0" y="0" class="st53 st11 st10">30</tspan><tspan x="3.9" y="40" class="st12 st11 st10">6</tspan><tspan x="0" y="80" class="st12 st11 st10">13</tspan><tspan x="0" y="120" class="st12 st11 st10">20</tspan><tspan x="0" y="160" class="st12 st11 st10">27</tspan><tspan x="3.9" y="200" class="st53 st11 st10">4</tspan></text>
	<text transform="matrix(1 0 0 1 957.6647 483.1629)"><tspan x="0" y="0" class="st53 st11 st10">31</tspan><tspan x="3.9" y="40" class="st12 st11 st10">7</tspan><tspan x="0" y="80" class="st7 st11 st10">14</tspan><tspan x="0" y="120" class="st12 st11 st10">21</tspan><tspan x="0" y="160" class="st12 st11 st10">28</tspan><tspan x="3.9" y="200" class="st53 st11 st10">5</tspan></text>
	<text transform="matrix(1 0 0 1 837.5958 483.1629)"><tspan x="0" y="0" class="st53 st11 st10">28</tspan><tspan x="3.9" y="40" class="st12 st11 st10">4</tspan><tspan x="0" y="80" class="st12 st11 st10">11</tspan><tspan x="0" y="120" class="st12 st11 st10">18</tspan><tspan x="0" y="160" class="st12 st11 st10">25</tspan><tspan x="3.9" y="200" class="st53 st11 st10">2</tspan></text>
	<g>
		<text transform="matrix(1 0 0 1 797.5958 483.1629)"><tspan x="0" y="0" class="st53 st11 st10">27</tspan><tspan x="3.9" y="40" class="st54 st11 st10">3</tspan><tspan x="0" y="80" class="st12 st11 st10">10</tspan><tspan x="0" y="120" class="st12 st11 st10">17</tspan><tspan x="0" y="160" class="st12 st11 st10">24</tspan><tspan x="3.9" y="200" class="st53 st11 st10">1</tspan></text>
	</g>
	<text transform="matrix(1 0 0 1 877.5958 483.1629)"><tspan x="0" y="0" class="st53 st11 st10">29</tspan><tspan x="3.9" y="40" class="st12 st11 st10">5</tspan><tspan x="0" y="80" class="st12 st11 st10">12</tspan><tspan x="0" y="120" class="st12 st11 st10">19</tspan><tspan x="0" y="160" class="st12 st11 st10">26</tspan><tspan x="3.9" y="200" class="st53 st11 st10">3</tspan></text>
	<text transform="matrix(1 0 0 1 892.583 401.569)" class="st12 st11 st10">June 2016</text>
	<path class="st0" d="M1043.2,391.5l4.2,4c1.1,1,1.1,1,0,2l-4.2,4"/>
	<path class="st0" d="M809,401.5l-4.2-4c-1.1-1-1.1-1,0-2l4.2-4"/>
	<g>
		<g>
			<path class="st17" d="M1049.4,731.6c0,0.6-0.5,1.1-1.1,1.1H936.8c-0.6,0-1.1-0.5-1.1-1.1v-27.9c0-0.6,0.5-1.1,1.1-1.1h111.6
				c0.6,0,1.1,0.5,1.1,1.1V731.6z"/>
		</g>
		<text transform="matrix(1 0 0 1 955.3175 721.5306)" class="st7 st11 st10">Today, Now</text>
	</g>
	<g>
		<path class="st14" d="M915.7,731.6c0,0.6-0.5,1.1-1.1,1.1H800.8c-0.6,0-1.1-0.5-1.1-1.1v-27.9c0-0.6,0.5-1.1,1.1-1.1h113.9
			c0.6,0,1.1,0.5,1.1,1.1V731.6z"/>
	</g>
	<g>
		<text transform="matrix(1 0 0 1 819.3961 721.7161)" class="st12 st11 st10">12:30 PM</text>
	</g>
	<path class="st1" d="M895.6,715.6l-3.3,3.4c-0.8,0.9-0.8,0.9-1.6,0l-3.3-3.4"/>
	<rect x="915.5" y="692.8" class="st45" width="20" height="59.8"/>
	<rect x="1065.5" y="372.6" class="st45" width="20" height="380"/>
	<rect x="765.4" y="372.6" class="st45" width="20" height="380"/>
	<g>
		<text transform="matrix(1 0 0 1 1097.4707 702.7498)" class="st40 st41 st13">10px</text>
	</g>
	<g>
		<text transform="matrix(1 0 0 1 1099.6372 746.7498)" class="st40 st41 st13">20px</text>
	</g>
	<rect x="765.7" y="372.5" class="st55" width="319.9" height="44.2"/>
	<rect x="765.7" y="416.7" class="st56" width="319.9" height="10.5"/>
	<g>
		<g class="st2">
			<rect x="785.4" y="539.2" class="st57" width="80" height="40"/>
			<rect x="785.4" y="499.2" class="st58" width="80" height="40"/>
		</g>
		<g class="st2">
			<rect x="785.4" y="499.2" class="st37" width="40" height="80"/>
			<rect x="825.5" y="499.2" class="st58" width="40" height="80"/>
		</g>
	</g>
	<g>
		<text transform="matrix(1 0 0 1 862.2676 782.3749)" class="st40 st41 st10">Border radius: 3px</text>
	</g>
	<rect x="765.5" y="692.8" class="st55" width="320" height="10"/>
	<rect x="765.5" y="732.5" class="st55" width="320" height="20.1"/>
	<g>
		<g>
			<line class="st39" x1="1091.1" y1="693.1" x2="1091.1" y2="702.3"/>
			<g>
				<rect x="1088.8" y="692.8" class="st40" width="4.5" height="0.7"/>
			</g>
			<g>
				<rect x="1088.8" y="701.9" class="st40" width="4.5" height="0.7"/>
			</g>
		</g>
	</g>
	<g>
		<text transform="matrix(1 0 0 1 1097.4707 428.9287)" class="st40 st41 st13">10px</text>
	</g>
	<g>
		<g>
			<line class="st39" x1="1091.1" y1="419.3" x2="1091.1" y2="428.5"/>
			<g>
				<rect x="1088.8" y="418.9" class="st40" width="4.5" height="0.7"/>
			</g>
			<g>
				<rect x="1088.8" y="428.1" class="st40" width="4.5" height="0.7"/>
			</g>
		</g>
	</g>
	<g>
		<g>
			<line class="st39" x1="1091.1" y1="732.9" x2="1091.1" y2="752.3"/>
			<g>
				<rect x="1088.8" y="732.5" class="st40" width="4.5" height="0.7"/>
			</g>
			<g>
				<rect x="1088.8" y="751.9" class="st40" width="4.5" height="0.7"/>
			</g>
		</g>
	</g>
	<g>
		<text transform="matrix(1 0 0 1 1099.6372 401.4779)" class="st40 st41 st13">40px</text>
	</g>
	<g>
		<g>
			<line class="st39" x1="1091.1" y1="371.8" x2="1091.1" y2="416.3"/>
			<g>
				<rect x="1088.8" y="371.4" class="st40" width="4.5" height="0.7"/>
			</g>
			<g>
				<rect x="1088.8" y="416" class="st40" width="4.5" height="0.7"/>
			</g>
		</g>
	</g>
	<g>
		<g>
			<line class="st39" x1="759.8" y1="539.6" x2="759.8" y2="578.9"/>
			<g>
				<rect x="757.5" y="539.2" class="st40" width="4.6" height="0.7"/>
			</g>
			<g>
				<rect x="757.5" y="578.5" class="st40" width="4.6" height="0.7"/>
			</g>
		</g>
	</g>
	<g>
		<text transform="matrix(1 0 0 1 696.6334 562.5914)" class="st40 st59 st13">40 x 40px</text>
	</g>
	<g>
		<g>
			<line class="st39" x1="759.8" y1="499.6" x2="759.8" y2="538.9"/>
			<g>
				<rect x="757.5" y="499.2" class="st40" width="4.6" height="0.7"/>
			</g>
			<g>
				<rect x="757.5" y="538.5" class="st40" width="4.6" height="0.7"/>
			</g>
		</g>
	</g>
	<g>
		<text transform="matrix(1 0 0 1 696.6334 522.5914)" class="st40 st59 st13">40 x 40px</text>
	</g>
	<g>
		<text transform="matrix(1 0 0 1 862.2676 817.8137)"><tspan x="0" y="0" class="st40 st41 st13">Hover : Mozio Blue, 10%</tspan><tspan x="0" y="19" class="st40 st41 st13">Active : Mozio Blue, 100%</tspan></text>
	</g>
	<rect x="942.2" y="491.9" class="st39" width="48" height="95.2"/>
	<g>
		<path class="st39" d="M990.1,539.6h145.3c5.5,0,10,4.5,10,10v262.2c0,5.5-4.5,10-10,10H1032"/>
	</g>
	<circle class="st60" cx="990.1" cy="539.6" r="5"/>
	<g class="st61">
		<path class="st49" d="M195.3,342.1c0,1.7-1.3,3-3,3h-48.7c-1.6,0-3-1.3-3-3v-29c0-1.6,1.4-3,3-3h48.7c1.7,0,3,1.4,3,3V342.1z"/>
		<path class="st62" d="M195.3,342.1c0,1.7-1.3,3-3,3h-48.7c-1.6,0-3-1.3-3-3v-29c0-1.6,1.4-3,3-3h48.7c1.7,0,3,1.4,3,3V342.1z"/>
	</g>
	<g>
		<path class="st49" d="M523.6,342.1c0,1.7-1.3,3-3,3h-97.9c-1.6,0-3-1.3-3-3v-29c0-1.6,1.4-3,3-3h97.9c1.7,0,3,1.4,3,3V342.1z"/>
		<path class="st62" d="M523.6,342.1c0,1.7-1.3,3-3,3h-97.9c-1.6,0-3-1.3-3-3v-29c0-1.6,1.4-3,3-3h97.9c1.7,0,3,1.4,3,3V342.1z"/>
	</g>
	<g class="st61">
		<path class="st49" d="M409.2,342.1c0,1.7-1.4,3-3,3H210.2c-1.7,0-3-1.3-3-3v-29c0-1.6,1.3-3,3-3h196.1c1.6,0,3,1.4,3,3V342.1z"/>
		<path class="st62" d="M409.2,342.1c0,1.7-1.4,3-3,3H210.2c-1.7,0-3-1.3-3-3v-29c0-1.6,1.3-3,3-3h196.1c1.6,0,3,1.4,3,3V342.1z"/>
	</g>
	<path class="st7" d="M382.1,326L382.1,326l3.1,3.6c0.1,0.1,0.3,0.2,0.4,0.2s0.3-0.1,0.4-0.2l3.1-3.5l0.1-0.1c0-0.1,0.1-0.1,0.1-0.2
		c0-0.2-0.2-0.4-0.4-0.4l0,0h-6.5l0,0c-0.2,0-0.4,0.2-0.4,0.4C382,325.9,382,326,382.1,326z"/>
	<g>
		<text transform="matrix(1 0 0 1 227.5727 331.7179)"><tspan x="0" y="0" class="st8 st9 st10">Sort by:</tspan><tspan x="48.7" y="0" class="st7 st11 st10"> Recommended</tspan></text>
	</g>
	<g>
		<path class="st7" d="M490.2,335.1c-0.1,0-0.2-0.1-0.3-0.1c-0.8-0.2-1.4-1-1.4-1.8c0-0.8,0.6-1.5,1.3-1.8c0.7-0.2,1.5,0,2,0.7
			c0.1,0.2,0.2,0.3,0.3,0.5c0,0.1,0.1,0.1,0.2,0.1c2.8,0,5.7,0,8.5,0c0.7,0,1.4,0,2.1,0c0.3,0,0.5,0.2,0.5,0.5
			c0,0.3-0.2,0.5-0.5,0.5c-3.5,0-7.1,0-10.6,0c-0.1,0-0.2,0-0.3,0.2c-0.3,0.6-0.8,1.1-1.5,1.2c0,0,0,0-0.1,0
			C490.5,335.1,490.4,335.1,490.2,335.1z M491.4,333.3c0-0.6-0.4-0.9-0.9-0.9c-0.6,0-0.9,0.4-0.9,0.9c0,0.6,0.4,0.9,0.9,0.9
			C491,334.2,491.4,333.8,491.4,333.3z"/>
		<path class="st7" d="M496.3,320.1c0.1,0,0.2,0.1,0.4,0.1c0.6,0.2,1,0.6,1.2,1.1c0.1,0.1,0.1,0.2,0.2,0.2c1.7,0,3.3,0,5,0
			c0.4,0,0.6,0.3,0.5,0.6c-0.1,0.2-0.3,0.3-0.5,0.3c-1,0-2,0-3,0c-0.7,0-1.3,0-2,0c-0.1,0-0.2,0-0.2,0.1c-0.3,0.8-1,1.3-1.8,1.3
			c-0.7,0-1.4-0.5-1.7-1.3c-0.1-0.1-0.1-0.2-0.2-0.2c-1.7,0-3.3,0-5,0c-0.1,0-0.1,0-0.2,0c-0.2-0.1-0.4-0.3-0.3-0.5
			c0-0.2,0.2-0.4,0.5-0.4c0.6,0,1.3,0,1.9,0c1.1,0,2.1,0,3.2,0c0.1,0,0.1,0,0.2-0.1c0.3-0.7,0.8-1.1,1.5-1.3c0,0,0.1,0,0.1,0
			C496,320.1,496.1,320.1,496.3,320.1z M496.1,322.9c0.5,0,0.9-0.3,0.9-0.8c0.1-0.6-0.2-1-0.8-1c-0.6-0.1-1,0.2-1.1,0.7
			c0,0.2,0,0.3,0,0.5C495.2,322.7,495.6,322.9,496.1,322.9z"/>
		<path class="st7" d="M494.4,327.2c1.8,0,3.6,0,5.3,0c0.1,0,0.2,0,0.2-0.1c0.3-0.7,1-1.3,1.7-1.3c0.8,0,1.6,0.5,1.8,1.3
			c0.3,0.7,0,1.5-0.7,2c-1.2,0.9-2.5,0.2-2.9-0.8c0-0.1-0.1-0.2-0.2-0.2c-3.5,0-7,0-10.6,0c-0.1,0-0.1,0-0.2,0
			c-0.2,0-0.4-0.3-0.4-0.5c0-0.2,0.2-0.4,0.5-0.4c1.3,0,2.7,0,4,0C493.5,327.2,494,327.2,494.4,327.2z M500.8,327.6
			c0,0.6,0.3,0.9,0.9,0.9c0.6,0,1-0.3,1-0.9c0-0.6-0.3-0.9-0.9-1C501.1,326.7,500.8,327,500.8,327.6z"/>
	</g>
	<text transform="matrix(1 0 0 1 438.1398 331.7172)" class="st7 st11 st10">Filters</text>
	<text transform="matrix(1 0 0 1 159.9992 331.7172)" class="st7 st11 st10">All</text>
	<line class="st63" x1="140.9" y1="606.2" x2="397.5" y2="606.2"/>
	<line class="st0" x1="140.9" y1="673.2" x2="397" y2="673.2"/>
	<g>
		<g>
			<text transform="matrix(1 0 0 1 141.1765 646.9196)" class="st29 st9 st13">To</text>
		</g>
		<text transform="matrix(1 0 0 1 156.6765 664.9196)" class="st12 st11 st10">San Francisco Marriott Marquis, Mis...</text>
		<g>
			<path class="st1" d="M146.3,652.8c-2.5,0-4.5,2-4.5,4.5c0,1,0.6,2.6,2,5c0.9,1.7,1.8,3.1,1.9,3.1l0.7,1l0.7-1
				c0-0.1,1-1.4,1.9-3.1c1.3-2.4,2-4,2-5C150.8,654.8,148.7,652.8,146.3,652.8L146.3,652.8z M146.3,659.6c-1.3,0-2.3-1-2.3-2.3
				c0-1.3,1-2.3,2.3-2.3c1.3,0,2.3,1,2.3,2.3C148.6,658.5,147.5,659.6,146.3,659.6L146.3,659.6z M146.3,659.6"/>
		</g>
	</g>
	<g>
		<g>
			<text transform="matrix(1 0 0 1 140.8074 579.9196)" class="st29 st9 st13">From</text>
		</g>
		<text transform="matrix(1 0 0 1 157.1404 597.9196)" class="st12 st11 st10">SFO: San Francisco, CA - San Franci...</text>
		<g>
			<g>
				<path class="st1" d="M146.1,589.4c1.9,0,3.5,1.6,3.5,3.5s-1.6,3.5-3.5,3.5s-3.5-1.6-3.5-3.5S144.2,589.4,146.1,589.4
					 M146.1,587.4c-3,0-5.5,2.5-5.5,5.5c0,3,2.5,5.5,5.5,5.5s5.5-2.5,5.5-5.5C151.6,589.8,149.2,587.4,146.1,587.4L146.1,587.4z"/>
			</g>
		</g>
	</g>
	<text transform="matrix(1 0 0 1 141.762 774.6921)"><tspan x="0" y="0" class="st12 st11 st10">Primary    14px Roboto Regular #444444</tspan><tspan x="0" y="24" class="st29 st9 st13">Secondary    12px Roboto Medium #C4C4C4</tspan></text>
	<text transform="matrix(1 0 0 1 141.762 749.6921)" class="st12 st11 st64">Used Fonts</text>
	<text transform="matrix(1 0 0 1 141.762 861.692)"><tspan x="0" y="0" class="st12 st9 st13">Roundtrip?    12px Medium #444444</tspan><tspan x="0" y="24" class="st29 st9 st13">Sort by   30% opacity</tspan></text>
	<text transform="matrix(1 0 0 1 141.762 836.6921)" class="st12 st11 st64">Other</text>
	<g>
		<text transform="matrix(1 0 0 1 547.1237 332.1886)" class="st40 st59 st13">Padding: 10px 20px;</text>
	</g>
	<g>
		<text transform="matrix(1 0 0 1 207.1531 397.7724)"><tspan x="0" y="0" class="st40 st65 st13">Hover State</tspan><tspan x="0" y="19" class="st40 st59 st13">bg-color: rgba(47, 11, 163, 0.7)</tspan><tspan x="0" y="38" class="st40 st59 st13">border-color: rgba(47, 93, 137, 0.7)</tspan></text>
	</g>
	<g>
		<text transform="matrix(1 0 0 1 461.454 610.2667)" class="st40 st41 st10">Field Hover :  1px #CCCCCC</text>
	</g>
	<g>
		<text transform="matrix(1 0 0 1 461.4544 677.267)" class="st40 st41 st10">Field Active :  1px #4287C6</text>
	</g>
	<g>
		<text transform="matrix(1 0 0 1 419.6535 397.7719)"><tspan x="0" y="0" class="st40 st65 st13">Active State</tspan><tspan x="0" y="19" class="st40 st59 st13">bg-color: rgba(47, 11, 163, 1)</tspan><tspan x="0" y="38" class="st40 st59 st13">border-color: rgba(47, 93, 137, 1)</tspan></text>
	</g>
	<g>
		<text transform="matrix(0.9999 -1.435078e-02 1.435078e-02 0.9999 105.1852 604.6968)" class="st40 st41 st13">5px</text>
	</g>
	<g>
		<g>
			<line class="st39" x1="134.2" y1="598.7" x2="134.2" y2="603"/>
			<g>
				<rect x="132" y="598.4" class="st40" width="4.5" height="0.7"/>
			</g>
			<g>
				<rect x="132" y="602.7" class="st40" width="4.5" height="0.7"/>
			</g>
		</g>
	</g>
	<g>
		<text transform="matrix(0.9999 -1.435078e-02 1.435078e-02 0.9999 105.1852 673.3937)" class="st40 st41 st13">5px</text>
	</g>
	<g>
		<g>
			<line class="st39" x1="134.2" y1="667.4" x2="134.2" y2="671.7"/>
			<g>
				<rect x="132" y="667.1" class="st40" width="4.5" height="0.7"/>
			</g>
			<g>
				<rect x="132" y="671.4" class="st40" width="4.5" height="0.7"/>
			</g>
		</g>
	</g>
	<g>
		<g>
			<line class="st39" x1="534" y1="309.2" x2="534" y2="348.5"/>
			<g>
				<rect x="531.7" y="308.9" class="st40" width="4.6" height="0.7"/>
			</g>
			<g>
				<rect x="531.7" y="348.2" class="st40" width="4.6" height="0.7"/>
			</g>
		</g>
	</g>
	<g>
		<g>
			<circle class="st35" cx="571.7" cy="793.3" r="15"/>
			<g>
				<line class="st36" x1="564.7" y1="793.3" x2="578.7" y2="793.3"/>
				<polyline class="st36" points="574.6,788.9 578.7,793.3 574.6,797.7 				"/>
			</g>
		</g>
		<g>
			<circle class="st35" cx="571.3" cy="854.4" r="15"/>
			<g>
				<path class="st1" d="M575,845l-1.1,1l2.9,3.1H569c-4.6,0-5.9,3.8-5.9,5.9l2-2.1c0.5-1.1,1.6-2.3,3.9-2.3h7.8l-2.9,3.1l1.1,1
					l4.6-4.9L575,845z"/>
				<path class="st1" d="M567.7,863.8l1.1-1l-2.9-3.1h7.8c4.6,0,5.9-3.8,5.9-5.9l-2,2.1c-0.5,1.1-1.6,2.3-3.9,2.3h-7.8l2.9-3.1
					l-1.1-1l-4.6,4.9L567.7,863.8z"/>
			</g>
		</g>
		<g>
			<text transform="matrix(1 0 0 1 462.7658 746.2907)" class="st40 st41 st10">Roundtrip: Toggled</text>
		</g>
		<g>
			<text transform="matrix(1 0 0 1 463.8665 845.6163)" class="st12 st9 st13">Roundtrip?</text>
			<g>
				<g>
					<g>
						<path class="st49" d="M515.5,860.4c0,5-3.8,9-8.5,9h-27.1c-4.7,0-8.5-4-8.5-9l0,0c0-5,3.8-9,8.5-9H507
							C511.7,851.4,515.5,855.4,515.5,860.4L515.5,860.4z"/>
					</g>
					<defs>
						<filter id="Adobe_OpacityMaskFilter_2_" filterUnits="userSpaceOnUse" x="471.4" y="851.4" width="44.1" height="18">
							
								<feColorMatrix  type="matrix" values="-1 0 0 0 1  0 -1 0 0 1  0 0 -1 0 1  0 0 0 1 0" color-interpolation-filters="sRGB" result="source"/>
						</filter>
					</defs>
					<mask maskUnits="userSpaceOnUse" x="471.4" y="851.4" width="44.1" height="18" id="SVGID_3_">
						<g class="st66">
							
								<image style="overflow:visible;" width="50" height="23" xlink:href="724633684550215A.jpg"  transform="matrix(1 0 0 1 468.481 848.8692)">
							</image>
						</g>
					</mask>
					<g class="st67">
						<path d="M515.5,860.4c0,5-3.8,9-8.5,9h-27.1c-4.7,0-8.5-4-8.5-9l0,0c0-5,3.8-9,8.5-9H507C511.7,851.4,515.5,855.4,515.5,860.4
							L515.5,860.4z"/>
					</g>
				</g>
				<g>
					<circle class="st17" cx="506" cy="860.4" r="7.6"/>
				</g>
			</g>
		</g>
		<g>
			<text transform="matrix(1 0 0 1 462.8665 784.5457)" class="st12 st9 st13">Roundtrip?</text>
			<g>
				<g>
					<g>
						<path class="st14" d="M514.5,799.3c0,5-3.8,9-8.5,9h-27.1c-4.7,0-8.5-4-8.5-9l0,0c0-5,3.8-9,8.5-9H506
							C510.7,790.4,514.5,794.4,514.5,799.3L514.5,799.3z"/>
					</g>
					<defs>
						<filter id="Adobe_OpacityMaskFilter_3_" filterUnits="userSpaceOnUse" x="470.4" y="790.4" width="44.1" height="18">
							
								<feColorMatrix  type="matrix" values="-1 0 0 0 1  0 -1 0 0 1  0 0 -1 0 1  0 0 0 1 0" color-interpolation-filters="sRGB" result="source"/>
						</filter>
					</defs>
					<mask maskUnits="userSpaceOnUse" x="470.4" y="790.4" width="44.1" height="18" id="SVGID_4_">
						<g class="st68">
							
								<image style="overflow:visible;" width="50" height="23" xlink:href="7246336845502166.jpg"  transform="matrix(1 0 0 1 467.481 787.8692)">
							</image>
						</g>
					</mask>
					<g class="st69">
						<path d="M514.5,799.3c0,5-3.8,9-8.5,9h-27.1c-4.7,0-8.5-4-8.5-9l0,0c0-5,3.8-9,8.5-9H506C510.7,790.4,514.5,794.4,514.5,799.3
							L514.5,799.3z"/>
					</g>
				</g>
				<g>
					<circle class="st17" cx="479" cy="799.3" r="7.6"/>
				</g>
			</g>
		</g>
	</g>
	<rect x="140.7" y="466.4" class="st70" width="198" height="54"/>
	<g>
		<line class="st39" x1="217" y1="327.4" x2="217" y2="381.4"/>
		<circle class="st60" cx="217" cy="327.4" r="5"/>
		<circle class="st60" cx="217" cy="381.4" r="2"/>
	</g>
	<line class="st39" x1="430" y1="327.4" x2="430" y2="381.4"/>
	<circle class="st60" cx="430" cy="327.4" r="5"/>
	<circle class="st60" cx="430" cy="381.4" r="2"/>
	<g>
		<path class="st7" d="M220.3,501.9c1.5-0.2,3-1.8,3-3.7v-13.8c0-1.9-1.6-3.7-3.9-3.7h-4.8h-4.8c-2.2,0-3.9,1.8-3.9,3.7v13.8
			c0,1.9,1.5,3.4,3,3.7l-2.3,3.6h2.6l1-1.6h4.4h4.4l1.1,1.6h2.6L220.3,501.9z M212.1,482.1c0-0.3,0.3-0.6,0.6-0.6h1.9h1.9
			c0.3,0,0.6,0.3,0.6,0.6v1.1c0,0.3-0.3,0.6-0.6,0.6h-1.9h-1.9c-0.4,0-0.6-0.3-0.6-0.6L212.1,482.1L212.1,482.1z M209.8,499.9
			c-0.9,0-1.7-0.8-1.7-1.7c0-0.9,0.8-1.7,1.7-1.7c0.9,0,1.7,0.8,1.7,1.7C211.5,499.1,210.7,499.9,209.8,499.9z M210,490.9
			c-1.1,0-1.9-0.7-1.9-1.9v-2.5c0-1,0.7-1.9,1.9-1.9h4.6h4.6c1.3,0,1.9,0.9,1.9,1.9v2.5c0,1.2-0.9,1.9-1.9,1.9h-4.6H210z
			 M217.7,498.2c0-0.9,0.8-1.7,1.7-1.7c0.9,0,1.7,0.8,1.7,1.7c0,0.9-0.8,1.7-1.7,1.7C218.5,499.9,217.7,499.1,217.7,498.2z"/>
	</g>
	<path class="st71" d="M270.2,486.2h-0.5V484c0-0.8-0.6-1.6-1.4-1.9c0,0-2.5-0.8-8.7-0.8c-6.2,0-8.7,0.8-8.7,0.8
		c-0.8,0.2-1.4,1.1-1.4,1.9v2.2h-0.5c-0.7,0-1.2,0.5-1.2,1.2v2.9c0,0.7,0.5,1.2,1.2,1.2h0.5v10.8h0.7v0.5c0,1.2,1,2.2,2.2,2.2
		s2.2-1,2.2-2.2v-0.5h10v0.5c0,1.2,1,2.2,2.2,2.2c1.2,0,2.2-1,2.2-2.2v-0.5h0.7v-10.8h0.5c0.7,0,1.2-0.5,1.2-1.2v-2.9
		C271.4,486.7,270.9,486.2,270.2,486.2z M256.1,482.8h7.2v1.9h-7.2V482.8z M252.5,500.5c-0.7,0-1.2-0.5-1.2-1.2
		c0-0.7,0.5-1.2,1.2-1.2c0.7,0,1.2,0.5,1.2,1.2C253.7,500,253.2,500.5,252.5,500.5z M251.6,495.2v-9.1h16.2v9.1H251.6z M266.9,500.5
		c-0.7,0-1.2-0.5-1.2-1.2c0-0.7,0.5-1.2,1.2-1.2c0.7,0,1.2,0.5,1.2,1.2C268.1,500,267.5,500.5,266.9,500.5z"/>
	<path class="st7" d="M179,483.5c-0.3-0.8-1-1.4-1.9-1.4H162c-0.9,0-1.7,0.6-1.9,1.4l-2.8,8.2v11c0,0.8,0.6,1.4,1.4,1.4h1.4
		c0.8,0,1.4-0.6,1.4-1.4v-1.4h16.4v1.4c0,0.8,0.6,1.4,1.4,1.4h1.4c0.8,0,1.4-0.6,1.4-1.4v-11L179,483.5z M162,497.2
		c-1.1,0-2.1-0.9-2.1-2.1c0-1.1,0.9-2.1,2.1-2.1c1.1,0,2.1,0.9,2.1,2.1C164.1,496.3,163.2,497.2,162,497.2z M177.1,497.2
		c-1.1,0-2.1-0.9-2.1-2.1c0-1.1,0.9-2.1,2.1-2.1s2.1,0.9,2.1,2.1C179.1,496.3,178.2,497.2,177.1,497.2z M160,490.4l2.1-6.2h15.1
		l2.1,6.2H160z"/>
	<g>
		<path class="st7" d="M312.2,484.7c0-1.1-0.9-2-2-2h-2.4v-1c0-0.6-0.5-1-1-1h-4c-0.6,0-1,0.5-1,1v1h-2.4c-1.1,0-2,0.9-2,2v5.3
			l-2.5,0.8c0,0,2.7,3.8,3,8.5c0,0-0.1,0-0.1-0.1c-0.5-0.3-1.1-0.6-2.2-0.6c-1.7,0-3.4,1-3.6,1.1l1.1,1.8c0,0,1.4-0.8,2.5-0.8
			c0.5,0,0.8,0.1,1.1,0.4c0.5,0.3,1,0.6,2,0.6c0.9,0,1.5-0.3,1.9-0.6c0.4-0.2,0.6-0.3,1.1-0.3c0.5,0,0.8,0.1,1.2,0.4
			c0.5,0.3,1,0.6,1.9,0.6c1,0,1.6-0.3,2.1-0.6c0.4-0.2,0.6-0.3,0.9-0.3c0.3,0,0.5,0.1,0.9,0.3c0.5,0.3,1.2,0.6,2.2,0.6
			c1.1,0,1.7-0.4,2.2-0.6c0.4-0.2,0.6-0.3,0.9-0.3c0.7,0,2,0.5,2.6,0.8l0.9-1.8c-0.2-0.1-2.2-1-3.6-1c-0.8,0-1.4,0.3-1.8,0.6
			c-0.1,0.1-0.3,0.2-0.4,0.2c0.3-4.7,3-8.5,3-8.5l-2.5-0.8L312.2,484.7z M299.7,484.8h10.2v4.6l-5.1-1.6l-5.1,1.6V484.8z"/>
		<path class="st7" d="M312.2,503.1c-0.4,0.2-0.7,0.4-1.2,0.4c-0.5,0-0.8-0.2-1.2-0.4c-0.5-0.2-1-0.6-1.9-0.6
			c-0.8,0-1.4,0.3-1.9,0.6c-0.4,0.2-0.7,0.4-1.1,0.4c-0.4,0-0.6-0.1-0.9-0.3c-0.5-0.3-1.1-0.6-2.2-0.6c-1.1,0-1.7,0.4-2.2,0.6
			c-0.3,0.2-0.5,0.3-0.9,0.3c-0.4,0-0.6-0.1-1-0.3c-0.5-0.3-1.1-0.6-2.2-0.6c-1.7,0-3.4,1-3.6,1.1l1.1,1.8c0,0,1.4-0.8,2.5-0.8
			c0.5,0,0.8,0.1,1.1,0.4c0.5,0.3,1,0.6,2,0.6c0.9,0,1.5-0.3,1.9-0.6c0.4-0.2,0.6-0.4,1.1-0.4c0.5,0,0.8,0.1,1.2,0.4
			c0.5,0.3,1,0.6,1.9,0.6c1,0,1.6-0.3,2.1-0.6c0.4-0.2,0.6-0.3,0.9-0.3c0.3,0,0.5,0.1,0.9,0.3c0.5,0.3,1.2,0.6,2.2,0.6
			c1.1,0,1.7-0.4,2.2-0.6c0.4-0.2,0.6-0.3,0.9-0.3c0.7,0,2,0.5,2.6,0.8l0.9-1.8c-0.2-0.1-2.2-1-3.6-1
			C313.2,502.5,312.6,502.8,312.2,503.1z"/>
	</g>
	<g>
		<text transform="matrix(1 0 0 1 405.8255 487.7724)"><tspan x="0" y="0" class="st40 st65 st13">Hover/active State</tspan><tspan x="0" y="19" class="st40 st59 st13">reduce opacity to 70%</tspan></text>
	</g>
	<g>
		<line class="st39" x1="339.2" y1="492.9" x2="393.2" y2="492.9"/>
		<circle class="st60" cx="339.2" cy="492.9" r="5"/>
		<circle class="st60" cx="393.2" cy="492.9" r="2"/>
	</g>
	<circle class="st60" cx="1032.6" cy="821.8" r="2"/>
	<g>
		<line class="st39" x1="397.2" y1="605.9" x2="451.2" y2="605.9"/>
		<circle class="st60" cx="397.2" cy="605.9" r="5"/>
		<circle class="st60" cx="451.2" cy="605.9" r="2"/>
	</g>
	<g>
		<line class="st39" x1="397.2" y1="672.9" x2="451.2" y2="672.9"/>
		<circle class="st60" cx="397.2" cy="672.9" r="5"/>
		<circle class="st60" cx="451.2" cy="672.9" r="2"/>
	</g>
</g>
</svg>
