<svg xmlns="http://www.w3.org/2000/svg" viewBox="0 0 64 64"><defs><style>.a{fill:#4d4d4d;}.b{fill:#ccc;}.c{fill:#fff;}.d{fill:#999;}</style></defs><title>issue-avatars</title><rect class="a" width="64" height="64"/><path class="b" d="M18,37.3a.9.9,0,0,1,.5-.6l12.7-5.8h.6l17.3,4.7a.9.9,0,1,1-.5,1.8L31.7,32.8,19.3,38.4a.9.9,0,0,1-1.2-.5,1,1,0,0,1,0-.6Zm0,0"/><path class="c" d="M32,58.3A26.3,26.3,0,1,1,58.3,32,26.3,26.3,0,0,1,32,58.3ZM32,7.3A24.7,24.7,0,1,0,56.7,32,24.7,24.7,0,0,0,32,7.3Zm0,0"/><path class="c" d="M40.6,44a.9.9,0,0,1-.7-.3L31,32.9a.9.9,0,0,1-.2-.6V14.4a.9.9,0,1,1,1.9,0V31.9l8.7,10.5a.9.9,0,0,1-.1,1.3l-.6.2Zm0,0"/><path class="d" d="M29.7,47.1a.9.9,0,0,1-.3-.7l1.3-13.9a.9.9,0,0,1,.3-.6L43.6,19.2a.9.9,0,1,1,1.3,1.3L32.5,33,31.2,46.6a.9.9,0,0,1-1,.8l-.6-.3Zm0,0"/></svg>