<svg xmlns="http://www.w3.org/2000/svg" viewBox="0 0 64 64"><defs><style>.a{fill:#0267c1;}.b{fill:none;}.c{fill:#04538e;}.d{fill:#fff;}</style></defs><title>case</title><rect class="a" width="64" height="64"/><path class="b" d="M12.1,22.1H9.3a.7.7,0,0,0-.7.7v5h6Z"/><rect class="b" x="33.1" y="22.1" width="1.3" height="14.47"/><rect class="b" x="29.6" y="22.1" width="1.3" height="14.47"/><path class="b" d="M55.4,34.2V30H36.6v6.6H53A2.4,2.4,0,0,0,55.4,34.2Z"/><path class="b" d="M11,36.6H27.4V30H8.6v4.2A2.4,2.4,0,0,0,11,36.6Z"/><polygon class="b" points="21.6 27.9 19.1 22.1 14.4 22.1 17 27.9 21.6 27.9"/><polygon class="b" points="40.4 22.1 36.6 22.1 36.6 27.9 46.7 27.9 40.4 22.1"/><polygon class="b" points="43.6 22.1 49.9 27.9 54.7 27.9 48.2 22.1 43.6 22.1"/><polygon class="b" points="24 27.9 27.4 27.9 27.4 22.1 21.4 22.1 24 27.9"/><rect class="c" x="4.3" y="44.3" width="20.5" height="1.25" transform="translate(-0.1 0) rotate(-0.2)"/><rect class="c" x="27" y="44.3" width="3" height="1.25"/><rect class="c" x="32.3" y="44.3" width="22.2" height="1.25"/><rect class="c" x="56.7" y="44.3" width="3" height="1.25"/><path class="d" d="M9.3,20.4a2.4,2.4,0,0,0-2.4,2.4V34.2A4.2,4.2,0,0,0,11,38.4H53a4.2,4.2,0,0,0,4.2-4.2V27.8l-8.3-7.4Zm26.9,1.3h4.3l7.2,6.5H36.2Zm-16.9,0,2.9,6.5H16.7l-2.9-6.5ZM8.2,22.8a1.1,1.1,0,0,1,1.1-1.1h3.1l2.9,6.5h-7ZM27.8,37H11a2.8,2.8,0,0,1-2.8-2.8V29.6H27.8Zm0-8.7H23.7l-2.9-6.5h7ZM31.3,37H29.2V21.7h2.2Zm3.5,0H32.7V21.7h2.2Zm21-2.8A2.8,2.8,0,0,1,53,37H36.2V29.6H55.8Zm-6.1-5.9-7.2-6.5h5.9l7.3,6.5Z"/><rect class="c" x="7.8" y="40.7" width="48.5" height="1.25"/></svg>