<svg xmlns="http://www.w3.org/2000/svg" viewBox="0 0 1280 600"><defs><style>.a,.bi,.br{fill:#fff}.b{font-size:8.67px}.b,.bc,.bn,.w{font-family:Roboto-Regular,Roboto}.c{letter-spacing:-.01em}.d{letter-spacing:-.03em}.e{letter-spacing:0}.f{letter-spacing:.01em}.g{letter-spacing:-.04em}.h{font-size:7.22px;fill:gray}.i,.j{letter-spacing:-.01em}.k{letter-spacing:0}.l{letter-spacing:-.04em}.m{letter-spacing:-.01em}.n{letter-spacing:-.08em}.o{letter-spacing:0}.p,.q,.r{letter-spacing:-.01em}.s{font-family:Roboto-Bold,Roboto}.af,.s{font-weight:700}.ac,.bj,.bs,.v{fill:none}.ac,.v{stroke:#000}.ac,.bi,.bj,.br,.bs,.v{stroke-miterlimit:10}.bc,.bn,.w{font-size:10.11px}.x{letter-spacing:-.03em}.y{letter-spacing:-.01em}.z{letter-spacing:0}.aa{opacity:.1}.ab{fill:#e75a24}.ac{stroke-dasharray:3 3}.ad,.ak,.al,.am,.an,.ar,.av,.aw{letter-spacing:-.01em}.az{letter-spacing:0}.ba{fill:#4280bc}.bc{fill:#333}.be{letter-spacing:-.02em}.bf{letter-spacing:-.01em}.bh{opacity:.4}.bi,.bj{stroke:#e54d59}.bn{fill:#8f8f8f}.br,.bs{stroke:#39ab4a}</style></defs><path class="a" d="M0 0h1280v600H0z"/><text class="b" transform="translate(142.4 225.3)">Menu<tspan x="0" y="13">L</tspan><tspan class="c" x="4.7" y="13">ev</tspan><tspan x="13.5" y="13">el 1: </tspan><tspan class="d" x="31.7" y="13">T</tspan><tspan class="e" x="36.5" y="13">ranspo</tspan><tspan class="f" x="63.5" y="13">r</tspan><tspan x="66.5" y="13">t </tspan><tspan class="g" x="71.7" y="13">T</tspan><tspan x="76.4" y="13">ypes</tspan><tspan x="0" y="26">Input: Location Set</tspan><tspan x="0" y="39">Input: Destination</tspan><tspan class="h"><tspan x="0" y="49.1"> Quick </tspan><tspan class="i" x="29.2" y="49.1">K</tspan><tspan class="j" x="33.7" y="49.1">e</tspan><tspan class="k" x="37.5" y="49.1">ys</tspan></tspan><tspan x="0" y="62.1">Input: </tspan><tspan class="l" x="24.6" y="62.1">T</tspan><tspan x="29.3" y="62.1">od</tspan><tspan class="m" x="39.2" y="62.1">a</tspan><tspan class="n" x="43.9" y="62.1">y</tspan><tspan class="o" x="47.5" y="62.1">, Now</tspan><tspan x="0" y="75.1">Map</tspan><tspan class="h"><tspan x="0" y="85.2"> Route &amp; Station Displ</tspan><tspan class="p" x="77.9" y="85.2">a</tspan><tspan x="81.9" y="85.2">y</tspan></tspan><tspan x="0" y="98.2">L</tspan><tspan class="c" x="4.7" y="98.2">ev</tspan><tspan x="13.5" y="98.2">el 3: P</tspan><tspan class="q" x="37.2" y="98.2">r</tspan><tspan class="r" x="40.1" y="98.2">o</tspan><tspan x="45" y="98.2">vider</tspan><tspan class="h"><tspan x="0" y="108.3"> Incoming Time</tspan></tspan></text><text class="b" transform="translate(417.5 53.4)">Menu<tspan x="0" y="13">L</tspan><tspan class="c" x="4.7" y="13">ev</tspan><tspan x="13.5" y="13">el 1: </tspan><tspan class="d" x="31.7" y="13">T</tspan><tspan class="e" x="36.5" y="13">ranspo</tspan><tspan class="f" x="63.5" y="13">r</tspan><tspan x="66.5" y="13">t </tspan><tspan class="g" x="71.7" y="13">T</tspan><tspan x="76.4" y="13">ypes</tspan><tspan x="0" y="26">Input: Location Set</tspan><tspan x="0" y="39">Input: Destination</tspan><tspan class="h"><tspan x="0" y="49.1"> Quick </tspan><tspan class="i" x="29.2" y="49.1">K</tspan><tspan class="j" x="33.7" y="49.1">e</tspan><tspan class="k" x="37.5" y="49.1">ys</tspan></tspan><tspan x="0" y="62.1">Input: </tspan><tspan class="l" x="24.6" y="62.1">T</tspan><tspan x="29.3" y="62.1">od</tspan><tspan class="m" x="39.2" y="62.1">a</tspan><tspan class="n" x="43.9" y="62.1">y</tspan><tspan class="o" x="47.5" y="62.1">, Now</tspan><tspan x="0" y="75.1">Map</tspan><tspan class="h"><tspan x="0" y="85.2"> Route &amp; Station Displ</tspan><tspan class="p" x="77.9" y="85.2">a</tspan><tspan x="81.9" y="85.2">y</tspan></tspan><tspan class="s"><tspan x="0" y="98.2">L</tspan><tspan class="m" x="4.7" y="98.2">ev</tspan><tspan x="13.6" y="98.2">el 3: Routes</tspan></tspan><tspan class="h"><tspan x="0" y="108.3"> Price, Ride time</tspan></tspan><tspan class="s"><tspan x="0" y="121.3">L</tspan><tspan class="m" x="4.7" y="121.3">ev</tspan><tspan x="13.6" y="121.3">el 3: Alternati</tspan><tspan class="r" x="65.6" y="121.3">v</tspan><tspan x="70" y="121.3">e (</tspan><tspan x="79.7" y="121.3" letter-spacing="-.07em">L</tspan><tspan x="83.8" y="121.3" letter-spacing=".01em">y</tspan><tspan x="88.3" y="121.3">ft)</tspan></tspan><tspan class="h"><tspan x="0" y="131.5"> Price, Ride time</tspan></tspan></text><circle cx="221.8" cy="262.1" r="2.2"/><circle cx="484" cy="149.4" r="2.2"/><circle cx="221.8" cy="321.3" r="2.2"/><path class="v" d="M221.8 262.4h27.3c15 0 27.3-13.5 27.3-30V126c0-16.5 10.2-30 22.8-30H322M108.8 262.4h27.4M136.2 333.6V218.2M379.6 96.3h27.5M407.1 185.5V47"/><rect class="a" x="51" y="211.2" width="72.2" height="101.12" rx="10" ry="10"/><rect class="v" x="51" y="211.2" width="72.2" height="101.12" rx="10" ry="10"/><text class="w" transform="translate(61.2 258.2)">Bus &amp; <tspan class="x" x="28.8" y="0">T</tspan><tspan x="34.4" y="0">rain</tspan><tspan x="-2.9" y="12.1">Homesc</tspan><tspan class="y" x="34.9" y="12.1">r</tspan><tspan class="z" x="38.2" y="12.1">een</tspan></text><rect class="a" x="321.8" y="45.4" width="72.2" height="101.12" rx="10" ry="10"/><rect class="v" x="321.8" y="45.4" width="72.2" height="101.12" rx="10" ry="10"/><text class="w" transform="translate(332.1 74.6)">Bus &amp; <tspan class="x" x="28.8" y="0">T</tspan><tspan x="34.4" y="0">rain</tspan><tspan x="-2.9" y="12.1">Homesc</tspan><tspan class="y" x="34.9" y="12.1">r</tspan><tspan class="z" x="38.2" y="12.1">een</tspan><tspan x="24.5" y="24.3">-</tspan><tspan x="-.2" y="36.4">Destination</tspan><tspan x="18.3" y="48.5">Set</tspan></text><g class="aa"><rect class="ab" x="305.2" y="269.3" width="72.2" height="101.12" rx="10" ry="10"/></g><text class="w" transform="translate(327.1 316.3)">Select<tspan x="-6.4" y="12.1">End Stop</tspan></text><path class="ac" d="M981.3 266.8v186.3"/><path class="v" d="M1000 504h28.2M1028.2 467.6v72.9"/><rect class="a" x="945.2" y="453.5" width="72.2" height="101.12" rx="10" ry="10"/><rect class="v" x="945.2" y="453.5" width="72.2" height="101.12" rx="10" ry="10"/><text class="w" transform="translate(959.6 500.9)">Tic<tspan class="ad" x="13.8" y="0">k</tspan><tspan x="18.9" y="0">eting</tspan><tspan x="3.2" y="12.1">Options</tspan></text><text transform="translate(1035.1 475.5)" font-family="Roboto-Bold,Roboto" font-size="8.67"><tspan class="af">Modifiers</tspan><tspan letter-spacing="-.01em" font-family="Roboto-Regular,Roboto"><tspan x="0" y="13">P</tspan><tspan class="o" x="5.5" y="13">assenger #</tspan></tspan><tspan fill="gray" font-size="7.22" font-family="Roboto-Regular,Roboto"><tspan x="0" y="23.1"> Adult, Child</tspan><tspan x="45.8" y="23.1" letter-spacing="-.01em">r</tspan><tspan x="48.2" y="23.1">en</tspan></tspan><tspan font-family="Roboto-Regular,Roboto"><tspan x="0" y="36.1">Tic</tspan><tspan class="ak" x="11.9" y="36.1">k</tspan><tspan class="e" x="16.2" y="36.1">et Bundles</tspan><tspan x="0" y="49.1">Return</tspan></tspan><tspan class="af"><tspan x="0" y="62.1">...</tspan></tspan></text><path class="v" d="M1000 215.9h28.2M1028.2 250.2v-68.7"/><text class="b" transform="translate(1035.1 193.1)">C<tspan class="al" x="5.5" y="0">r</tspan><tspan class="e" x="8.4" y="0">edit Ca</tspan><tspan class="am" x="35.5" y="0">r</tspan><tspan x="38.4" y="0">d</tspan><tspan x="0" y="13">System </tspan><tspan class="an" x="31.6" y="13">P</tspan><tspan class="o" x="37.1" y="13">ass</tspan><tspan x="0" y="26">P</tspan><tspan class="al" x="5.6" y="26">r</tspan><tspan class="e" x="8.4" y="26">e-Bought Codes</tspan><tspan x="0" y="39">Coupon</tspan><tspan class="s"><tspan x="0" y="52">...</tspan></tspan></text><text class="b" transform="translate(1035.1 330.3)">Selected: P<tspan class="q" x="43.8" y="0">r</tspan><tspan class="r" x="46.6" y="0">o</tspan><tspan x="51.5" y="0">vider/Route</tspan><tspan x="0" y="13">O</tspan><tspan x="5.9" y="13" letter-spacing="-.01em">v</tspan><tspan x="10.2" y="13">e</tspan><tspan x="14.8" y="13" letter-spacing=".01em">r</tspan><tspan x="17.8" y="13">vie</tspan><tspan x="29" y="13" letter-spacing="-.06em">w</tspan><tspan x="35" y="13">: Route</tspan><tspan x="0" y="26">Timetables (if </tspan><tspan class="r" x="55.8" y="26">av</tspan><tspan x="64.8" y="26">ailable)</tspan><tspan class="an"><tspan x="0" y="39">P</tspan><tspan class="r" x="5.5" y="39">a</tspan><tspan class="o" x="10.2" y="39">yment Options</tspan></tspan><tspan class="h"><tspan x="0" y="49.1"> Price, Ca</tspan><tspan class="ar" x="37.3" y="49.1">r</tspan><tspan x="39.7" y="49.1">d Selected</tspan></tspan><tspan x="0" y="62.1">Mo</tspan><tspan class="am" x="12.5" y="62.1">r</tspan><tspan x="15.4" y="62.1">e Tic</tspan><tspan class="q" x="34" y="62.1">k</tspan><tspan x="38.4" y="62.1">eting Options</tspan><tspan x="0" y="75.1">Buy Tic</tspan><tspan class="q" x="28.8" y="75.1">k</tspan><tspan x="33.2" y="75.1">et</tspan></text><text class="b" transform="translate(785.2 283.4)"><tspan fill="gray">Input: Location Set (Disabled)<tspan x="0" y="13">Input: Destination Set (Disabled)</tspan></tspan><tspan x="0" y="26">Map</tspan><tspan x="0" y="39">Button: Back</tspan><tspan x="0" y="52">Input: </tspan><tspan class="l" x="24.6" y="52">T</tspan><tspan x="29.3" y="52">od</tspan><tspan class="m" x="39.2" y="52">a</tspan><tspan class="n" x="43.9" y="52">y</tspan><tspan class="o" x="47.5" y="52">, Now</tspan><tspan x="0" y="65">P</tspan><tspan class="ak" x="5.6" y="65">r</tspan><tspan class="r" x="8.4" y="65">o</tspan><tspan x="13.3" y="65">vide</tspan><tspan x="29.4" y="65" letter-spacing="-.08em">r</tspan><tspan class="e" x="31.6" y="65">: Selected</tspan><tspan x="0" y="78">Timetable List</tspan><tspan class="h"><tspan x="0" y="88.1"> Depa</tspan><tspan x="25.6" y="88.1" letter-spacing=".01em">r</tspan><tspan class="k" x="28.2" y="88.1">tu</tspan><tspan class="ar" x="34.8" y="88.1">r</tspan><tspan x="37.2" y="88.1">e/Arri</tspan><tspan class="p" x="55.4" y="88.1">v</tspan><tspan x="59" y="88.1">al Time</tspan><tspan x="0" y="98.2"> Price</tspan><tspan x="0" y="108.3"> A</tspan><tspan class="p" x="13.7" y="108.3">v</tspan><tspan x="17.2" y="108.3">ailability</tspan></tspan></text><rect class="a" x="945.2" y="166" width="72.2" height="101.12" rx="10" ry="10"/><rect class="v" x="945.2" y="166" width="72.2" height="101.12" rx="10" ry="10"/><text class="w" transform="translate(961.1 213.5)"><tspan class="av">P</tspan><tspan class="aw" x="6.4" y="0">a</tspan><tspan x="11.9" y="0">yment</tspan><tspan x="2.5" y="12.1">Options</tspan></text><path class="v" d="M770.4 319.9h9.4M779.8 274.7V365"/><text class="b" transform="translate(585.1 285)">Input: Location<tspan x="0" y="13">Input: Destination Set</tspan><tspan x="0" y="26">Input: </tspan><tspan class="l" x="24.6" y="26">T</tspan><tspan x="29.3" y="26">od</tspan><tspan class="m" x="39.2" y="26">a</tspan><tspan class="n" x="43.9" y="26">y</tspan><tspan class="o" x="47.5" y="26">, Now</tspan><tspan x="0" y="39">Map</tspan><tspan x="0" y="52">Button: Back</tspan><tspan class="s"><tspan x="0" y="65">List: Sta</tspan><tspan x="32.3" y="65" letter-spacing=".01em">r</tspan><tspan x="35.4" y="65">t Stops</tspan></tspan><tspan class="h"><tspan x="0" y="75.1"> Default: Closest</tspan><tspan x="0" y="85.2"> Incoming Time</tspan></tspan></text><path class="v" d="M570.3 319.9h9.4M579.7 362.8v-85.9"/><text class="b" transform="translate(393 289.9)">Input: Location<tspan x="0" y="13">Input: Destination</tspan><tspan x="0" y="26">Input: </tspan><tspan class="l" x="24.6" y="26">T</tspan><tspan x="29.3" y="26">od</tspan><tspan class="m" x="39.2" y="26">a</tspan><tspan class="n" x="43.9" y="26">y</tspan><tspan class="o" x="47.5" y="26">, Now</tspan><tspan x="0" y="39">Map</tspan><tspan x="0" y="52">Button: Back</tspan><tspan class="s"><tspan x="0" y="65">List: Stops</tspan></tspan><tspan class="h"><tspan x="0" y="75.1"> Incoming Time</tspan></tspan></text><path class="v" d="M377.5 319.9h10.1M387.6 359.2v-78.7M1003.7 360.3h27.4M1031.1 400.4v-80.2"/><g class="aa"><rect class="ab" x="498.1" y="269.3" width="72.2" height="101.12" rx="10" ry="10"/></g><text class="w" transform="translate(516.1 316.3)">Confirm<tspan x="-5" y="12.1">Sta</tspan><tspan x="10.4" y="12.1" letter-spacing=".01em">r</tspan><tspan class="az" x="13.9" y="12.1">t Stop</tspan></text><g class="aa"><rect class="ba" x="698.1" y="269.3" width="72.2" height="101.12" rx="10" ry="10"/></g><text class="w" transform="translate(720.1 316.7)">Select<tspan x="-11.1" y="12.1">Timetables</tspan></text><rect class="a" x="945.2" y="309.8" width="72.2" height="101.12" rx="10" ry="10"/><rect class="v" x="945.2" y="309.8" width="72.2" height="101.12" rx="10" ry="10"/><text class="w" transform="translate(963.1 357.2)">Confirm<tspan x="-.5" y="12.1">Booking</tspan></text><path class="v" d="M221.8 321.3l83.1-1.1"/><circle cx="442.8" cy="352.4" r="2.2"/><path class="v" d="M442.8 352.4h54.9"/><circle cx="656.6" cy="348" r="2.2"/><path class="v" d="M656.6 348h41.9"/><path class="ac" d="M484 149.4h220.6a30.1 30.1 0 0 1 30 30v89.9"/><circle cx="849.5" cy="359.6" r="2.2"/><path class="v" d="M849.5 359.6h96"/><rect class="a" x="1156.8" y="352" width="72.2" height="101.12" rx="10" ry="10"/><rect class="v" x="1156.8" y="352" width="72.2" height="101.12" rx="10" ry="10"/><text class="w" transform="translate(1184.2 399.4)"><tspan class="x">T</tspan><tspan x="5.6" y="0">rip</tspan><tspan x="-7" y="12.1">Details</tspan></text><circle cx="1084.2" cy="402.9" r="2.2"/><path class="v" d="M1084.2 402.9h72.9"/><path fill="#efefef" opacity=".6" d="M51 447.7h385v106.89H51z"/><text class="bc" transform="translate(67.1 534.6)">Flat Rate, <tspan x="45.6" y="0" letter-spacing="-.01em">F</tspan><tspan class="y" x="51.4" y="0">r</tspan><tspan x="54.8" y="0">ee Tic</tspan><tspan class="ad" x="81.8" y="0">k</tspan><tspan x="86.9" y="0">eting, P</tspan><tspan class="y" x="120.8" y="0">r</tspan><tspan class="z" x="124.1" y="0">e-</tspan><tspan class="av" x="132.2" y="0">P</tspan><tspan class="aw" x="138.7" y="0">a</tspan><tspan x="144.1" y="0">y</tspan></text><text class="bc" transform="translate(67.1 473.6)"><tspan class="be">V</tspan><tspan class="az" x="6.2" y="0">ariable </tspan><tspan class="bf" x="39.5" y="0">P</tspan><tspan class="z" x="45.9" y="0">er Stop, Strict Tic</tspan><tspan class="ad" x="124" y="0">k</tspan><tspan x="129.1" y="0">eting, P</tspan><tspan x="163" y="0" letter-spacing="-.01em">r</tspan><tspan x="166.4" y="0">e-</tspan><tspan class="av" x="174.5" y="0">P</tspan><tspan class="aw" x="180.9" y="0">a</tspan><tspan x="186.4" y="0">y</tspan></text><g class="bh"><rect class="ab" x="274.1" y="493.6" width="10.5" height="15.13" rx="3" ry="3"/></g><g class="bh"><rect class="ba" x="295.8" y="493.6" width="10.5" height="15.13" rx="3" ry="3"/></g><g class="bh"><rect class="ab" x="274.1" y="524.1" width="10.5" height="15.13" rx="3" ry="3"/></g><g class="bh"><rect class="ba" x="295.8" y="524.1" width="10.5" height="15.13" rx="3" ry="3"/></g><circle class="bi" cx="306.2" cy="501.1" r="4.2" transform="rotate(-45 306.192 501.171)"/><path class="bj" d="M303.1 504.3l6.3-6.3"/><circle class="bi" cx="284.6" cy="531.7" r="4.2" transform="rotate(-45 284.637 531.7)"/><path class="bj" d="M281.4 534.8l6.3-6.3"/><circle class="bi" cx="306.2" cy="531.7" r="4.2" transform="rotate(-45 306.306 531.624)"/><path class="bj" d="M303.1 534.8l6.3-6.3"/><g class="bh"><rect class="ab" x="274.1" y="463.1" width="10.5" height="15.13" rx="3" ry="3"/></g><g class="bh"><rect class="ba" x="295.8" y="463.1" width="10.5" height="15.13" rx="3" ry="3"/></g><text class="bc" transform="translate(67.1 504.1)"><tspan class="be">V</tspan><tspan class="az" x="6.2" y="0">ariable </tspan><tspan class="bf" x="39.5" y="0">P</tspan><tspan class="z" x="45.9" y="0">er Stop, </tspan><tspan x="83" y="0" letter-spacing="-.01em">F</tspan><tspan class="y" x="88.8" y="0">r</tspan><tspan x="92.1" y="0">ee Tic</tspan><tspan x="119.2" y="0" letter-spacing="-.01em">k</tspan><tspan x="124.3" y="0">eting, P</tspan><tspan class="y" x="158.1" y="0">r</tspan><tspan x="161.5" y="0">e-</tspan><tspan x="169.6" y="0" letter-spacing="-.01em">P</tspan><tspan class="aw" x="176" y="0">a</tspan><tspan class="z" x="181.5" y="0">y</tspan></text><text class="bn" transform="translate(321.3 534.6)">i.e. Heath<tspan class="ad" x="43.2" y="0">r</tspan><tspan x="46.5" y="0">ow Exp</tspan><tspan class="y" x="79.2" y="0">r</tspan><tspan x="82.6" y="0">ess</tspan></text><text class="bn" transform="translate(321.3 473.6)">i.e. National Exp<tspan class="y" x="73.5" y="0">r</tspan><tspan class="z" x="76.9" y="0">ess</tspan></text><text class="bn" transform="translate(321.3 504.1)">i.e. BA<tspan x="28.8" y="0" letter-spacing="-.02em">R</tspan><tspan x="35.3" y="0" letter-spacing="-.13em">T</tspan><tspan x="39.9" y="0">, SEP</tspan><tspan x="63.1" y="0" letter-spacing="-.05em">T</tspan><tspan x="68.5" y="0">A</tspan></text><circle class="br" cx="284.6" cy="470.6" r="4.2" transform="rotate(-45 284.63 470.602)"/><path class="bs" d="M282.4 470.3l1.7 1.7 2.6-2.7"/><circle class="br" cx="284.6" cy="501.1" r="4.2" transform="rotate(-45 284.573 501.126)"/><circle class="br" cx="306.2" cy="470.6" r="4.2" transform="rotate(-45 306.249 470.648)"/><path class="bs" d="M282.4 500.8l1.7 1.7 2.6-2.7M304.1 470.3l1.7 1.7 2.6-2.7"/><text transform="translate(889.6 89.8)" font-size="12.81" fill="#58575e" font-family="Roboto-Regular,Roboto">Combined Flo<tspan x="79.6" y="0" letter-spacing="-.06em">w</tspan><tspan x="88.5" y="0">: Destination/Timetable conditionals</tspan></text><text transform="translate(889.6 59.5)" font-size="16.47" fill="#404041" font-family="Roboto-Medium,Roboto">2. Bus &amp; <tspan x="65.2" y="0" letter-spacing="-.03em">T</tspan><tspan x="74.2" y="0">rain Conditionals</tspan></text></svg>