<svg xmlns="http://www.w3.org/2000/svg" viewBox="0 0 1280 600"><defs><style>.d{fill:#fff}.c,.l{fill:none}.c,.d,.l{stroke-miterlimit:10;stroke:#3f3f43}.f,.k{fill:#3f3f43}.g,.m,.u,.y{fill:#58575e}.h{fill:#333335}.j{fill:#b1b3b5}.k{font-size:7.01px;font-family:Menlo-Regular,Menlo}.l{stroke-width:.75px}.m,.u{font-size:10.07px}.m,.y{font-family:Roboto-Regular,Roboto}.u{font-family:Roboto-Black,Roboto}.w{letter-spacing:-.01em}.y{font-size:10.06px}.aa,.ab,.ah,.as,.z{letter-spacing:-.01em}</style></defs><path fill="#fff" d="M0 0h1280v600H0z"/><path stroke-miterlimit="10" stroke="#b1b3b5" fill="none" d="M957.9 479.2v-355"/><path class="c" d="M987.3 82.6h171.4a40.1 40.1 0 0 1 40 40v108.1"/><path class="d" d="M1004.7 75.4h34.3v15.61h-34.3z"/><path stroke-miterlimit="10" stroke="#b1b3b5" fill="#fff" d="M940.6 140.1h34.3v15.61h-34.3z"/><path class="c" d="M415.9 390.6h13.7a10 10 0 0 1 10 10v110.5M103 343.7h165.6"/><path class="f" d="M135.4 412.4H70.2a8.9 8.9 0 0 1-8.9-8.9V284.9a8.9 8.9 0 0 1 8.9-8.9h65.3a8.9 8.9 0 0 1 8.9 8.9v118.6a8.9 8.9 0 0 1-9 8.9z"/><path class="g" d="M67.2 296.8h71.2v94.92H67.2z"/><circle class="h" cx="102.8" cy="402" r="5.9"/><circle cx="102.8" cy="402" r="5.2" style="isolation:isolate" opacity=".1"/><path class="h" d="M113.2 287.9H89.5a1.5 1.5 0 1 1 0-3h23.7a1.5 1.5 0 0 1 0 3z"/><rect class="d" x="189.6" y="303.8" width="59" height="80.85" rx="2.7" ry="2.7"/><rect class="f" x="279.4" y="356.1" width="12.6" height="7.08" rx="2.7" ry="2.7"/><rect class="f" x="279.4" y="385.6" width="12.6" height="7.08" rx="2.7" ry="2.7"/><rect class="f" x="279.4" y="297.6" width="12.6" height="7.08" rx="2.7" ry="2.7"/><rect class="f" x="279.4" y="327" width="12.6" height="7.08" rx="2.7" ry="2.7"/><path class="f" d="M617.6 324.3h-7.3a.6.6 0 0 1-.6-.6v-4.5a.5.5 0 0 1 .6-.6h7.4v1h-6.9v3.7h6.9z"/><path class="f" d="M618.1 325.6v-8.3h-.7a.5.5 0 1 1 0-1.1h2.5a.5.5 0 0 1 .6.5.5.5 0 0 1-.6.5h-.7v8.3h1.1a.5.5 0 0 1 .2.6.5.5 0 0 1-.5.4h-2.7a.5.5 0 0 1-.5-.5.5.5 0 0 1 .5-.5z"/><path class="f" d="M619.6 324.3v-1h1.5v-3.7h-1.5v-1.1h2a.6.6 0 0 1 .6.6v4.5a.5.5 0 0 1-.5.6h-2zM613.6 322.8a.3.3 0 0 1-.2-.2c-.1-.2-.2-.3-.4-.3h-.9v.2a.3.3 0 0 1-.4.2.3.3 0 0 1-.1-.4l.8-1.7.2-.4.3-.2.3.2 1 2.2a.3.3 0 0 1-.6.4zm-.9-1.9l-.3.8h.7zM617.6 341.4h-7.3a.6.6 0 0 1-.6-.6v-4.5a.5.5 0 0 1 .6-.6h7.4v1h-6.9v3.7h6.9z"/><path class="f" d="M618.1 342.7v-8.3h-.7a.5.5 0 1 1 0-1.1h2.5a.5.5 0 1 1 0 1h-.7v8.3h1.1a.5.5 0 0 1 .2.6.5.5 0 0 1-.5.4h-2.7a.5.5 0 0 1-.5-.5.5.5 0 0 1 .5-.5z"/><path class="f" d="M619.6 341.4v-1h1.5v-3.7h-1.5v-1.1h2a.6.6 0 0 1 .6.6v4.5a.5.5 0 0 1-.5.6h-2zM613.6 339.9a.3.3 0 0 1-.2-.2c-.1-.2-.2-.3-.4-.3h-.9v.2a.3.3 0 0 1-.4.2.3.3 0 0 1-.1-.4l.8-1.7.2-.4.3-.2a.3.3 0 0 1 .3.2l1 2.2a.3.3 0 0 1-.6.4zm-.9-1.9l-.3.8h.7z"/><rect class="f" x="609.6" y="387.7" width="12.6" height="7.08" rx="2.7" ry="2.7"/><rect class="f" x="609.6" y="370.3" width="12.6" height="7.08" rx="2.7" ry="2.7"/><rect class="f" x="784.9" y="521.7" width="12.6" height="7.08" rx="2.7" ry="2.7"/><rect class="f" x="784.9" y="539.3" width="12.6" height="7.08" rx="2.7" ry="2.7"/><rect class="f" x="1025.9" y="521.7" width="12.6" height="7.08" rx="2.7" ry="2.7"/><rect class="f" x="1025.9" y="540.4" width="12.6" height="7.08" rx="2.7" ry="2.7"/><path class="f" d="M622.6 167.6h-7.3a.6.6 0 0 1-.6-.6v-4.5a.5.5 0 0 1 .6-.6h7.4v1h-6.9v3.7h6.9z"/><path class="f" d="M623.1 168.9v-8.3h-.7a.5.5 0 1 1 0-1.1h2.6a.5.5 0 1 1 0 1h-.7v8.3h1.1a.5.5 0 0 1 .2.6.5.5 0 0 1-.5.4h-2.7a.5.5 0 0 1-.5-.5.5.5 0 0 1 .5-.5z"/><path class="f" d="M624.7 167.6v-1h1.5v-3.7h-1.5v-1.1h2a.6.6 0 0 1 .6.6v4.5a.5.5 0 0 1-.5.6h-2zM618.7 166.2a.3.3 0 0 1-.2-.2c-.1-.2-.2-.3-.4-.3h-.9v.2a.3.3 0 0 1-.4.2.3.3 0 0 1-.1-.4l.8-1.7.2-.4.3-.2.3.2 1 2.2a.3.3 0 0 1-.6.4zm-.9-1.9l-.3.8h.7zM622.6 184.7h-7.3a.6.6 0 0 1-.6-.6v-4.5a.5.5 0 0 1 .6-.6h7.4v1h-6.9v3.7h6.9z"/><path class="f" d="M623.1 186v-8.3h-.7a.5.5 0 1 1 0-1.1h2.6a.5.5 0 1 1 0 1h-.7v8.4h1.1a.5.5 0 0 1 .2.6.5.5 0 0 1-.5.4h-2.7a.5.5 0 0 1-.5-.5.5.5 0 0 1 .5-.5z"/><path class="f" d="M624.7 184.7v-1h1.5V180h-1.5v-1h2a.6.6 0 0 1 .6.6v4.5a.5.5 0 0 1-.5.6h-2zM618.7 183.3a.3.3 0 0 1-.2-.2c-.1-.2-.2-.3-.4-.3h-.9v.2a.3.3 0 0 1-.4.2.3.3 0 0 1-.1-.4l.8-1.7.2-.4.3-.2a.3.3 0 0 1 .3.2l1 2.2a.3.3 0 0 1-.6.4zm-.9-1.9l-.3.8h.7z"/><rect class="f" x="614.7" y="214.4" width="12.6" height="7.08" rx="2.7" ry="2.7"/><rect class="f" x="614.7" y="196.6" width="12.6" height="7.08" rx="2.7" ry="2.7"/><path class="f" d="M619.8 238.5l-.5.5a1 1 0 0 1-1.4 0 1 1 0 0 1 0-1.4l1.7-1.7c.3-.3 1-.8 1.5-.4a.6.6 0 0 0 .8-.8c-.8-.8-2-.7-3 .4l-1.7 1.7a2.1 2.1 0 0 0 0 3 2.1 2.1 0 0 0 3 0l.5-.5a.6.6 0 1 0-.8-.8zm5.1-6.4a2 2 0 0 0-2.9-.1l-.6.6a.6.6 0 1 0 .8.8l.6-.6a.9.9 0 0 1 1.3.1 1 1 0 0 1 0 1.4l-1.8 1.8c-.8.8-1.2.4-1.4.3a.6.6 0 0 0-.8.8 1.8 1.8 0 0 0 1.2.6 2.4 2.4 0 0 0 1.7-.8l1.8-1.8a2.1 2.1 0 0 0 0-3z"/><path class="c" d="M268.6 290.9V397"/><circle class="f" cx="268.6" cy="343.7" r="3.1"/><path class="c" d="M596.4 206.1H495.7a10 10 0 0 0-10 10v106.4a10 10 0 0 1-10 10h-57.6M596.4 160.5v81"/><circle class="f" cx="596.4" cy="206.1" r="3.1"/><path class="f" d="M792.9 511.4h-7.3a.6.6 0 0 1-.6-.6v-4.5a.5.5 0 0 1 .6-.6h7.4v1h-7v3.7h6.9z"/><path class="f" d="M793.4 512.7v-8.3h-.7a.5.5 0 1 1 0-1.1h2.5a.5.5 0 1 1 0 1h-.7v8.3h1.1a.5.5 0 0 1 .2.6.5.5 0 0 1-.5.4h-2.7a.5.5 0 0 1-.5-.5.5.5 0 0 1 .5-.5z"/><path class="f" d="M795 511.4v-1h1.5v-3.7H795v-1.1h2a.6.6 0 0 1 .6.6v4.5a.5.5 0 0 1-.5.6h-2zM789 510a.3.3 0 0 1-.2-.2c-.1-.2-.2-.3-.4-.3h-.9v.2a.3.3 0 0 1-.4.2.3.3 0 0 1-.1-.4l.8-1.7.2-.4.3-.2.3.2 1 2.2a.3.3 0 0 1-.6.4zm-.9-1.9l-.3.8h.7zM792.9 494h-7.3a.6.6 0 0 1-.6-.6v-4.5a.5.5 0 0 1 .6-.6h7.4v1h-7v3.7h6.9z"/><path class="f" d="M793.4 495.3V487h-.7a.5.5 0 1 1 0-1.1h2.5a.5.5 0 1 1 0 1h-.7v8.3h1.1a.5.5 0 0 1 .2.6.5.5 0 0 1-.5.4h-2.7a.5.5 0 0 1-.5-.5.5.5 0 0 1 .5-.5z"/><path class="f" d="M795 494v-1h1.5v-3.7H795v-1.1h2a.6.6 0 0 1 .6.6v4.5a.5.5 0 0 1-.5.6h-2zM789 492.6a.3.3 0 0 1-.2-.2c-.1-.2-.2-.3-.4-.3h-.9v.2a.3.3 0 0 1-.4.2.3.3 0 0 1-.1-.4l.8-1.7.2-.4.3-.2.3.2 1 2.2a.3.3 0 0 1-.6.4zm-.9-1.9l-.3.8h.7zM792.9 477.4h-7.3a.6.6 0 0 1-.6-.6v-4.5a.5.5 0 0 1 .6-.6h7.4v1h-7v3.7h6.9z"/><path class="f" d="M793.4 478.7v-8.3h-.7a.5.5 0 1 1 0-1.1h2.5a.5.5 0 1 1 0 1h-.7v8.3h1.1a.5.5 0 0 1 .2.6.5.5 0 0 1-.5.4h-2.7a.5.5 0 0 1-.5-.5.5.5 0 0 1 .5-.5z"/><path class="f" d="M795 477.4v-1h1.5v-3.7H795v-1.1h2a.6.6 0 0 1 .6.6v4.5a.5.5 0 0 1-.5.6h-2zM789 476a.3.3 0 0 1-.2-.2c-.1-.2-.2-.3-.4-.3h-.9v.2a.3.3 0 0 1-.4.2.3.3 0 0 1-.1-.4l.8-1.7.2-.4.3-.2.3.2 1 2.2a.3.3 0 0 1-.6.4zm-.9-1.9l-.3.8h.7zM1033.9 495.9h-7.3a.6.6 0 0 1-.6-.6v-4.5a.5.5 0 0 1 .6-.6h7.4v1h-7v3.7h6.9z"/><path class="f" d="M1034.4 497.2v-8.3h-.7a.5.5 0 1 1 0-1.1h2.5a.5.5 0 1 1 0 1h-.7v8.3h1.1a.5.5 0 0 1 .2.6.5.5 0 0 1-.5.4h-2.7a.5.5 0 0 1-.5-.5.5.5 0 0 1 .5-.5z"/><path class="f" d="M1035.9 495.9v-1h1.5v-3.7h-1.5v-1.1h2a.6.6 0 0 1 .6.6v4.5a.5.5 0 0 1-.5.6h-2zM1029.9 494.5a.3.3 0 0 1-.2-.2c-.1-.2-.2-.3-.4-.3h-.9v.2a.3.3 0 0 1-.4.2.3.3 0 0 1-.1-.4l.8-1.7.2-.4.3-.2a.3.3 0 0 1 .3.2l1 2.2a.3.3 0 0 1-.6.4zm-.9-1.9l-.3.8h.7zM1033.9 512.4h-7.3a.6.6 0 0 1-.6-.6v-4.5a.5.5 0 0 1 .6-.6h7.4v1h-7v3.7h6.9z"/><path class="f" d="M1034.4 513.6v-8.3h-.7a.5.5 0 1 1 0-1.1h2.5a.5.5 0 1 1 0 1h-.7v8.3h1.1a.5.5 0 0 1 .2.6.5.5 0 0 1-.5.4h-2.7a.5.5 0 0 1-.5-.5.5.5 0 0 1 .5-.5z"/><path class="f" d="M1035.9 512.3v-1h1.5v-3.7h-1.5v-1.1h2a.6.6 0 0 1 .6.6v4.5a.5.5 0 0 1-.5.6h-2zM1029.9 510.9a.3.3 0 0 1-.2-.2c-.1-.2-.2-.3-.4-.3h-.9v.2a.3.3 0 0 1-.4.2.3.3 0 0 1-.1-.4l.8-1.7.2-.4.3-.2a.3.3 0 0 1 .3.2l1 2.2a.3.3 0 0 1-.6.4zm-.9-1.9l-.3.8h.7z"/><path class="c" d="M766.7 518H721M766.7 472.8V566"/><circle class="f" cx="766.7" cy="518" r="3.1"/><circle class="f" cx="417.1" cy="332.5" r="3.1"/><circle class="f" cx="416.8" cy="361.8" r="3.1"/><circle class="f" cx="416.8" cy="390.6" r="3.1"/><path class="c" d="M596.4 314.5v95.4"/><circle class="f" cx="596.4" cy="361.6" r="3.1"/><circle class="f" cx="704.4" cy="200.2" r="3.1"/><circle class="f" cx="838.3" cy="286.9" r="3.1"/><circle class="f" cx="910.9" cy="527.1" r="3.1"/><circle class="f" cx="693.5" cy="371.7" r="3.1"/><circle class="f" cx="681.8" cy="246.9" r="3.1"/><path class="c" d="M838.4 286.9H691.8a10 10 0 0 1-10-10v-30"/><path class="f" d="M855.4 270.3h-7.3a.6.6 0 0 1-.6-.6v-4.5a.5.5 0 0 1 .6-.6h7.4v1h-6.9v3.7h6.9z"/><path class="f" d="M855.9 271.6v-8.3h-.7a.5.5 0 1 1 0-1.1h2.5a.5.5 0 1 1 0 1h-.7v8.3h1.1a.5.5 0 0 1 .2.6.5.5 0 0 1-.5.4h-2.7a.5.5 0 0 1-.5-.5.5.5 0 0 1 .5-.5z"/><path class="f" d="M857.5 270.3v-1h1.5v-3.7h-1.5v-1.1h2a.6.6 0 0 1 .6.6v4.5a.5.5 0 0 1-.5.6h-2zM851.5 268.9a.3.3 0 0 1-.2-.2c-.1-.2-.2-.3-.4-.3h-.9v.2a.3.3 0 0 1-.4.2.3.3 0 0 1-.1-.4l.8-1.7.2-.4.3-.2.3.2 1 2.2a.3.3 0 0 1-.6.4zm-.9-1.9l-.3.8h.7z"/><rect class="f" x="848.3" y="281.3" width="12.6" height="7.08" rx="2.7" ry="2.7"/><rect class="f" x="848.3" y="298" width="12.6" height="7.08" rx="2.7" ry="2.7"/><path class="c" d="M838.4 263.2v47.4"/><rect class="d" x="752.3" y="246.9" width="59" height="80.85" rx="2.7" ry="2.7"/><rect class="d" x="507.7" y="167.3" width="59" height="80.85" rx="2.7" ry="2.7"/><rect class="d" x="681.8" y="479.2" width="59" height="80.85" rx="2.7" ry="2.7"/><rect class="d" x="411.2" y="489.7" width="59" height="80.85" rx="2.7" ry="2.7"/><rect class="d" x="1170" y="159.8" width="59" height="80.85" rx="2.7" ry="2.7"/><path class="f" d="M464 361.8h-.1l-4 3.9h-.2a.2.2 0 0 1 0-.2l3.9-3.8-3.9-3.8a.2.2 0 0 1 0-.2h.2l4 3.9h.1zM1065.9 82.8h-.1l-4 3.9h-.2a.2.2 0 0 1 0-.2l3.9-3.8-3.9-3.8a.2.2 0 0 1 0-.2h.2l4 3.9h.1zM894.9 82.6h-.1l-4 3.9h-.2a.2.2 0 0 1 0-.2l3.9-3.8-3.9-3.8a.2.2 0 0 1 0-.2h.2l4 3.9h.1z"/><path class="j" d="M957.8 182.8h-.1l-3.9-4a.2.2 0 0 1 0-.2h.2l3.8 3.9 3.8-3.9h.2l-3.9 4h-.1zM957.8 427.4h-.1l-3.9-4a.2.2 0 0 1 0-.2h.2l3.8 3.9 3.8-3.9h.2l-3.9 4h-.1z"/><path class="f" d="M485.9 267h.1l3.9 4a.2.2 0 0 1 0 .2h-.2l-3.8-3.9-3.8 3.9h-.2l3.9-4h.1zM850.3 141h.1l3.9 4a.2.2 0 0 1 0 .2h-.2l-3.8-3.9-3.8 3.9h-.2l3.9-4h.1zM416.8 176.2h.1l3.9 4a.2.2 0 0 1 0 .2h-.2l-3.8-3.9-3.8 3.9h-.2l3.9-4h.1zM440 442.5h-.1l-3.9-4a.2.2 0 0 1 0-.2h.2l3.8 3.9 3.8-3.9h.2l-3.9 4h-.1z"/><path class="c" d="M416.8 361.8h179.6"/><rect class="d" x="507.7" y="323" width="59" height="80.85" rx="2.7" ry="2.7"/><path class="f" d="M725.1 107.2l-.9-.6-5-5a1.3 1.3 0 0 1-.2-1.8l2.8-4.5a1 1 0 0 0 0-1.1l-1.8-4.1a1.3 1.3 0 0 0-.7-.6l-5.1-1.2c-1-.2-1.3-.6-1.3-1.6v-6.8c0-2.3.3-1.4 1.3-1.6l5.1-1.2a1.3 1.3 0 0 0 .7-.6l1.8-4.2a1 1 0 0 0-.1-1.1l-2.7-4.6c-.5-.9-.5-1.3.2-2l4.9-4.9a1.2 1.2 0 0 1 1.9-.2l4.5 2.7a1.3 1.3 0 0 0 1 0l4.2-1.8a1.3 1.3 0 0 0 .7-.7c.4-1.7.8-3.3 1.2-5s.6-1.4 1.7-1.4h6.6c1.2 0 1.5.2 1.8 1.4l1.2 4.9a1 1 0 0 0 .8.8l4.2 1.7a1.4 1.4 0 0 0 1-.1l4.4-2.7c.9-.5 1.3-.5 2 .2l4.8 4.8c.7.7.8 1.1.2 2l-2.7 4.5a1.3 1.3 0 0 0 0 1q.8 2.1 1.8 4.2a1.3 1.3 0 0 0 .7.7l5 1.2c1.1.3 1.4.6 1.4 1.7v6.6c0 2.2-.2 1.4-1.4 1.7l-5.1 1.4a1 1 0 0 0-.8.8l-1.7 4.2a1.4 1.4 0 0 0 .1 1l2.7 4.4c.5.9.5 1.3-.2 2l-4.9 4.9a1.2 1.2 0 0 1-1.9.2l-4.5-2.7a1 1 0 0 0-1.1-.1l-4.2 1.8a1.3 1.3 0 0 0-.7.7l-1.2 5.1c-.4 1.7-.6 1.3-1.6 1.3h-6.8c-1 0-1.4-.3-1.6-1.3s-.8-3.3-1.2-5a1 1 0 0 0-.8-.8l-4.2-1.7a1.4 1.4 0 0 0-1 .1l-4.4 2.7zm.3-2.8l4.7-2.9a1.6 1.6 0 0 1 1.7 0l5.5 2.3a1.7 1.7 0 0 1 1.2 1.3c.3 1.6.7 3.2 1.1 4.8s.3.6.8.6h4.4c.5 0 .7-.2.8-.6s.8-3.1 1.1-4.7a1.8 1.8 0 0 1 1.3-1.4 46.7 46.7 0 0 0 5.1-2.1 2 2 0 0 1 2.3.1l4.3 2.7 4-4-2.9-4.6a1.6 1.6 0 0 1 0-1.7c.8-1.8 1.6-3.6 2.2-5.4a1.8 1.8 0 0 1 1.4-1.3l5.3-1.3v-5.8l-5.3-1.3a1.7 1.7 0 0 1-1.4-1.3c-.7-1.8-1.4-3.6-2.2-5.4a1.7 1.7 0 0 1 0-1.8l2.9-4.7-4-4-4.7 2.9a1.7 1.7 0 0 1-1.8 0l-5.2-2.1c-.7-.3-1.2-.6-1.3-1.5a4.6 4.6 0 0 0-.2-.7l-1.1-4.5h-5.6l-1.3 5.4a1.6 1.6 0 0 1-1.2 1.3l-5.5 2.3a1.6 1.6 0 0 1-1.7 0l-4.7-3-4 4 2.9 4.7a1.7 1.7 0 0 1 0 1.8q-1.2 2.7-2.2 5.4a1.7 1.7 0 0 1-1.4 1.3l-5.3 1.3v5.2c0 .2.3.5.5.5l4.8 1.1a1.8 1.8 0 0 1 1.4 1.3c.7 1.8 1.4 3.6 2.2 5.3a1.7 1.7 0 0 1 0 1.9l-2.9 4.7z"/><path class="f" d="M760 82h4.8v2.4H760c-.1.6-.1 1.1-.2 1.6a6.1 6.1 0 0 1-5.9 5h-4.1c-1 0-1.4-.4-1.4-1.5v-2.1h-4.8V85h4.7v-3.8h-4.7v-2.4h4.8v-2.1c0-.7.4-1.3 1.2-1.3a39 39 0 0 1 5.1.1 5.9 5.9 0 0 1 5.3 6zm-9.2 6.6h3.2a3.7 3.7 0 0 0 3.6-3.7v-3.4a3.4 3.4 0 0 0-2.4-3.4 30.2 30.2 0 0 0-4.4-.4zM727 84.4h-4.8V82h4.8c.1-.7.1-1.3.3-1.9a6.1 6.1 0 0 1 5.9-4.7h4.1a1.3 1.3 0 0 1 1.4 1.4v12.7c0 .9-.4 1.4-1.2 1.4a38.2 38.2 0 0 1-4.8 0 6 6 0 0 1-5.6-5.8zm9.2-6.6h-3.5a3.6 3.6 0 0 0-3.3 3.5v3.8a3.5 3.5 0 0 0 2.8 3.4 30.8 30.8 0 0 0 3.9 0z"/><circle class="f" cx="416.8" cy="301.1" r="3.1"/><circle class="f" cx="617.1" cy="82.9" r="3.1"/><circle class="f" cx="850.3" cy="83.2" r="3.1"/><circle class="f" cx="511.1" cy="82.9" r="3.1"/><path class="c" d="M511.1 40.1v69.3"/><rect class="f" x="520.9" y="78.3" width="12.6" height="7.08" rx="2.7" ry="2.7"/><rect class="f" x="520.9" y="98.1" width="12.6" height="7.08" rx="2.7" ry="2.7"/><path class="f" d="M525.3 64.5l-.6.6 2.1 2.1 4.6-4.6-.6-.6-4 4-1.4-1.4zm5.1 4.1H524v-6.5h4.6v-.9H524a.9.9 0 0 0-.9.9v6.5a.9.9 0 0 0 .9.9h6.5a.9.9 0 0 0 .9-.9v-3.7h-.9v3.7zM527.2 42.9a5 5 0 1 0 5 5 5 5 0 0 0-5-5zm.5 7.4h-1v-3h1zm0-4h-1v-1h1z"/><path class="c" d="M511.1 82.6h-54.3a40.1 40.1 0 0 0-40 40v178.5M617.1 82.9H713"/><text class="k" transform="translate(614.1 409.8)">i</text><circle class="l" cx="616.2" cy="407.3" r="4.3"/><text class="k" transform="translate(789.1 562.6)">i</text><circle class="l" cx="791.2" cy="560.1" r="4.3"/><path class="c" d="M1013.2 519.5h-45.7M1013.2 488v61.6"/><circle class="f" cx="1013.2" cy="519.5" r="3.1"/><circle class="f" cx="1155.6" cy="526.4" r="3.1"/><rect class="d" x="928.3" y="478.1" width="59" height="80.85" rx="2.7" ry="2.7"/><path class="f" d="M957.9 80.2c-11.1 0-17.9 3.1-17.9 4.8s6.8 4.7 17.9 4.7 17.9-3 17.9-4.7-6.8-4.8-17.9-4.8zM975.8 89.8c-4 2.4-11 3.5-17.9 3.5S944 92.2 940 89.8v8.3c0 1.7 6.8 4.8 17.9 4.8s17.9-3.1 17.9-4.8zM957.9 116c11.1 0 17.9-3.1 17.9-4.8v-8.3c-4 2.4-11 3.6-17.9 3.6s-13.9-1.2-17.9-3.6v8.3c0 1.7 6.8 4.8 17.9 4.8z"/><path class="c" d="M772.3 82.9h156.1"/><rect class="c" x="928.4" y="72.1" width="59" height="52.11" rx="3" ry="3"/><text class="m" transform="translate(1013.7 86.2)"><tspan letter-spacing="-.03em">Y</tspan><tspan x="5.8" y="0">es</tspan></text><text class="m" transform="translate(951.3 151.2)">No</text><circle class="g" cx="61.9" cy="122.4" r="10.9"/><text transform="translate(57.7 127)" font-family="Roboto-Black,Roboto" font-size="12.81" fill="#fff"><tspan>A </tspan><tspan x="17.7" y="0" letter-spacing="0" font-family="Roboto-Regular,Roboto" fill="#58575e"> User enters M</tspan><tspan x="104.5" y="0" letter-spacing="-.01em" font-family="Roboto-Regular,Roboto" fill="#58575e">o</tspan><tspan x="111.7" y="0" font-family="Roboto-Regular,Roboto" fill="#58575e">zio App for the 1st time</tspan></text><text transform="translate(51 96.7)" font-size="16.47" fill="#404041" font-family="Roboto-Medium,Roboto">1. <tspan x="18.1" y="0" letter-spacing="-.01em">F</tspan><tspan x="27.4" y="0">rom Homescreen</tspan></text><text class="u" transform="translate(197.6 341.6)"><tspan letter-spacing="-.02em">W</tspan><tspan x="8.8" y="0">elcome</tspan><tspan x="5.1" y="12.1">Sc</tspan><tspan class="w" x="16.6" y="12.1">r</tspan><tspan x="20.2" y="12.1">een</tspan></text><text transform="translate(80.1 339.6)" font-size="12.98" font-family="Roboto-Black,Roboto" fill="#fff">Sign Up<tspan x="9.1" y="15.6">Flow</tspan></text><text class="u" transform="translate(520.8 204.8)">Sign in<tspan x="0" y="12.1">Sc</tspan><tspan class="w" x="11.5" y="12.1">r</tspan><tspan x="15.1" y="12.1">een</tspan></text><text class="u" transform="translate(693.5 504.3)">Sign up<tspan x="-2.8" y="12.1">Sc</tspan><tspan class="w" x="8.7" y="12.1">r</tspan><tspan x="12.4" y="12.1">een 2</tspan><tspan x="3.9" y="36.2">Name</tspan></text><text class="u"><tspan x="941.7" y="505.3">Mobile</tspan><tspan x="939" y="517.4">Number</tspan></text><text class="u" transform="translate(426.6 527.5)">Home<tspan x="-2.3" y="12.1">Sc</tspan><tspan class="w" x="9.2" y="12.1">r</tspan><tspan x="12.8" y="12.1">een</tspan></text><text class="u" transform="translate(1185.4 197.6)">Home<tspan x="-2.3" y="12.1">Sc</tspan><tspan class="w" x="9.2" y="12.1">r</tspan><tspan x="12.8" y="12.1">een</tspan></text><text class="y" transform="translate(636.4 168.1)">Field: Email Ad<tspan class="z" x="67" y="0">r</tspan><tspan x="70.4" y="0">ess</tspan><tspan x="0" y="17.4">Field: </tspan><tspan class="aa" x="27" y="17.4">P</tspan><tspan x="33.4" y="17.4">asswo</tspan><tspan class="z" x="62.8" y="17.4">r</tspan><tspan x="66.2" y="17.4">d</tspan><tspan x="0" y="34.8">Button: Next</tspan><tspan x="0" y="52.1">Button: Back</tspan><tspan x="0" y="69.5">Link: </tspan><tspan class="ab" x="23.9" y="69.5">F</tspan><tspan x="29.6" y="69.5">o</tspan><tspan x="35.4" y="69.5" letter-spacing="-.01em">r</tspan><tspan x="38.7" y="69.5">got passwo</tspan><tspan class="z" x="91.2" y="69.5">r</tspan><tspan x="94.6" y="69.5">d?</tspan></text><text class="u" transform="translate(519.4 348.2)">Sign up<tspan x="-2.8" y="12.1">Sc</tspan><tspan class="w" x="8.7" y="12.1">r</tspan><tspan x="12.4" y="12.1">een 1</tspan><tspan x="5.9" y="36.2">Main</tspan></text><text class="y" transform="translate(300.2 304.4)">Button: Social Connect<tspan font-family="Roboto-Italic,Roboto" font-style="italic" font-size="6.41"><tspan x="0" y="7.7" letter-spacing="4.9em"> </tspan><tspan x="32.9" y="7.7">*Google, </tspan><tspan x="57.4" y="7.7" letter-spacing="-.02em">F</tspan><tspan x="60.8" y="7.7">acebook, ...</tspan></tspan><tspan x="0" y="29.6">Button: Sign in</tspan><tspan x="0" y="58.9">Button: Sign up</tspan><tspan x="0" y="88.2">Button: Do it later!</tspan></text><text class="u" transform="translate(715.7 32)"><tspan letter-spacing="-.02em">F</tspan><tspan x="5.6" y="0">acebook or </tspan><tspan x="2.8" y="12.1">Google API</tspan></text><text class="y" transform="translate(542.7 51.5)">Notice: Allow Access<tspan x="0" y="17.4">Checkb</tspan><tspan class="ab" x="33.6" y="17.4">o</tspan><tspan x="39.2" y="17.4">x: App</tspan><tspan class="ah" x="67.3" y="17.4">r</tspan><tspan x="70.7" y="17.4" letter-spacing="-.01em">o</tspan><tspan x="76.3" y="17.4" letter-spacing="-.01em">v</tspan><tspan x="81.3" y="17.4">e</tspan><tspan x="0" y="34.8">Button: Accept</tspan><tspan x="0" y="52.1">Button: Back</tspan></text><text class="y"><tspan x="631.3" y="324.4">Field: Email Ad</tspan><tspan class="z" x="698.3" y="324.4">r</tspan><tspan x="701.6" y="324.4">ess</tspan><tspan x="631.3" y="341.8">Field: </tspan><tspan class="aa" x="658.3" y="341.8">P</tspan><tspan x="664.7" y="341.8">asswo</tspan><tspan class="z" x="694.1" y="341.8">r</tspan><tspan x="697.4" y="341.8">d</tspan><tspan x="631.3" y="376.5">Button: Next</tspan><tspan x="631.3" y="393.9">Button: Back</tspan><tspan x="631.3" y="411.3">Tip: Step 1/2</tspan></text><text class="y" transform="translate(806.6 477.9)">Field: First Name<tspan x="0" y="17.4">Field: Last Name</tspan><tspan x="0" y="34.8">Field: Bi</tspan><tspan x="36" y="34.8" letter-spacing=".01em">r</tspan><tspan x="39.5" y="34.8">th Date</tspan><tspan x="0" y="52.1">Button: C</tspan><tspan class="z" x="42" y="52.1">r</tspan><tspan x="45.3" y="52.1">eate P</tspan><tspan class="ah" x="73.9" y="52.1">r</tspan><tspan x="77.3" y="52.1">ofile</tspan><tspan x="0" y="69.5">Button: Back</tspan><tspan x="0" y="86.9">Tip: Step 2/2</tspan></text><text class="y" transform="translate(1044.9 495.5)">Field: A<tspan class="z" x="33.5" y="0">r</tspan><tspan x="36.9" y="0">ea + Mobile Number</tspan><tspan x="0" y="17.4">Field: SMS Code Input</tspan><tspan x="0" y="34.8">Button: Send SMS</tspan><tspan x="0" y="52.1">Button: Next</tspan></text><text class="y" transform="translate(869.1 270.9)">Field: Email<tspan x="0" y="17.4">Button: Reset</tspan><tspan x="0" y="34.8">Button: Back</tspan></text><text class="u" transform="translate(766.8 285.4)"><tspan letter-spacing="-.01em">F</tspan><tspan x="5.7" y="0">o</tspan><tspan x="11.3" y="0" letter-spacing="-.01em">r</tspan><tspan x="15" y="0">got</tspan><tspan x="-7.3" y="12.1" letter-spacing="-.01em">P</tspan><tspan x="-.7" y="12.1">asswo</tspan><tspan class="w" x="27.9" y="12.1">r</tspan><tspan x="31.5" y="12.1">d</tspan></text><path class="c" d="M693.5 371.7h8.9c4.9 0 8.9 4.5 8.9 10v96.9M910.9 527.1h17.4M1158.3 526.4h20.4a20.1 20.1 0 0 0 20-20V240.6M704.4 200.2h106.2a40.1 40.1 0 0 0 40-40V81.9"/><text class="u" transform="translate(923 31.9)">Bac<tspan x="16.9" y="0" letter-spacing="-.01em">k</tspan><tspan x="22.3" y="0" letter-spacing="0">end Check</tspan></text><text transform="translate(880.5 48.1)" font-size="9.15" font-family="Roboto-Italic,Roboto" font-style="italic" fill="#58575e">Does user h<tspan x="45.9" y="0" letter-spacing="-.01em">a</tspan><tspan class="as" x="50.5" y="0">v</tspan><tspan x="54.8" y="0">e existing </tspan><tspan x="94.4" y="0" font-family="Roboto-BoldItalic,Roboto" font-weight="700">mobile number</tspan><tspan x="152.7" y="0"> </tspan><tspan class="as" x="26.4" y="11">v</tspan><tspan x="30.7" y="11">erified with this account?</tspan></text><rect class="f" x="942" y="528.5" width="5.9" height="10.6" rx="1.8" ry="1.8"/><rect class="f" x="950.3" y="528.5" width="5.9" height="10.6" rx="1.8" ry="1.8"/><rect class="f" x="958.5" y="528.5" width="5.9" height="10.6" rx="1.8" ry="1.8"/><rect class="f" x="966.7" y="528.5" width="5.9" height="10.6" rx="1.8" ry="1.8"/></svg>